<?xml version="1.0" standalone="no"?>
<!DOCTYPE svg PUBLIC "-//W3C//DTD SVG 1.1//EN" "http://www.w3.org/Graphics/SVG/1.1/DTD/svg11.dtd" >
<svg xmlns="http://www.w3.org/2000/svg">
<metadata>
This is a custom SVG webfont generated by Fontspring.
</metadata>
<defs>
<font id="webfontY9w9K15v" horiz-adv-x="1327" >
<font-face units-per-em="2048" ascent="1577" descent="-471" />
<missing-glyph horiz-adv-x="485" />
<glyph unicode=" "  horiz-adv-x="485" />
<glyph unicode="&#x09;" horiz-adv-x="485" />
<glyph unicode="&#xa0;" horiz-adv-x="485" />
<glyph unicode="!" horiz-adv-x="571" d="M98 1509v11q70 18 123 18q82 0 152.5 -36t70.5 -91q0 -139 -58 -441t-58 -456q0 -92 37 -143q-53 -8 -66 -9q-94 0 -94 138q0 53 1 193.5t1 219.5q0 205 -32 374t-77 222zM166 104.5q0 51.5 37 89t88 37.5q53 0 90 -37.5t37 -89t-38 -88t-89 -36.5t-88 36.5t-37 88z" />
<glyph unicode="&#x22;" horiz-adv-x="692" d="M92 1559q25 8 88 8q55 0 70.5 -13.5t15.5 -56.5q0 -41 -3 -119t-3 -108v-27q0 -94 8 -158q-33 -8 -78 -8q-57 0 -75.5 14.5t-18.5 55.5t3 118.5t3 108.5v43q0 74 -10 142zM418 1559q25 8 88 8q55 0 70.5 -13.5t15.5 -56.5q0 -41 -3 -119t-3 -108v-27q0 -94 8 -158 q-33 -8 -78 -8q-57 0 -75.5 14.5t-18.5 55.5t3 118.5t3 108.5v43q0 74 -10 142z" />
<glyph unicode="#" horiz-adv-x="1474" d="M98 420q0 47 14.5 60.5t57.5 13.5q39 0 120 -3.5t124 -3.5h12l35 297h-64q-195 0 -237 -6q-6 31 -6 68q0 47 14 60.5t57 13.5q39 0 120 -3.5t124 -3.5h6l10 88q23 190 23 236q27 4 57 0q51 -6 64.5 -22.5t9.5 -57.5q-4 -37 -16.5 -118t-16.5 -126h322l10 88 q23 190 23 236q27 4 57 0q51 -6 64.5 -22.5t9.5 -57.5q-4 -37 -16.5 -118t-16.5 -126h80q195 0 237 7q6 -27 6 -58q0 -53 -14 -68.5t-57 -15.5q-39 0 -121 3t-125 3h-23l-32 -297h73q195 0 238 7q6 -27 6 -58q0 -53 -14.5 -68.5t-57.5 -15.5q-39 0 -120.5 3t-124.5 3h-17 l-14 -135q-23 -193 -21 -237q-31 -2 -67 2q-47 6 -58.5 21.5t-7.5 58.5q4 37 16.5 116.5t18.5 124.5l4 49h-323l-15 -135q-23 -193 -20 -237q-31 -2 -68 2q-47 6 -58 21.5t-7 58.5q4 37 16 116.5l19 124.5l4 49h-70q-195 0 -238 -6q-6 31 -6 68zM557 487h322l34 297h-323z " />
<glyph unicode="$" horiz-adv-x="1064" d="M88 141.5q0 55.5 62 147.5h12q4 -8 14 -20.5t43 -44t69 -57.5t92 -48.5t116 -28.5v426l-106 50q-32 15 -92 54t-88 72t-51.5 86t-23.5 115q0 143 103.5 235.5t257.5 112.5q0 170 -9 227q33 6 70 7q47 0 47 -48q0 -2 -1 -63t-1 -115q113 -4 229.5 -38.5t116.5 -96.5 q0 -39 -25.5 -92t-60.5 -92h-12q-10 18 -30.5 48t-85 86t-132.5 73v-412q90 -41 132 -63.5t106.5 -69.5t93.5 -108.5t29 -141.5q0 -150 -103.5 -245t-257.5 -120q0 -150 8 -200q-33 -6 -69 -6q-47 0 -47 47q0 2 1 55t1 96q-63 2 -151.5 17.5t-172.5 57.5t-84 97.5zM348 963 q0 -109 148 -187v363q-68 -16 -108 -62t-40 -114zM602 96q150 31 150 172q0 109 -150 195v-367z" />
<glyph unicode="%" horiz-adv-x="1533" d="M63 1128.5q0 124.5 92.5 216t215.5 91.5q125 0 219 -91.5t94 -216t-94 -216t-219 -91.5q-123 0 -215.5 91.5t-92.5 216zM184 1133q0 -74 55.5 -136.5t133.5 -62.5q86 0 138 61.5t52 137.5q0 74 -58.5 129t-131.5 55q-78 0 -133.5 -54t-55.5 -130zM330 186q0 23 22 52 l140 196l464 703q102 156 125 200q27 -10 52 -26q57 -41 57 -68q0 -23 -19 -47l-141 -199l-463 -700q-102 -156 -125 -201q-33 14 -69 37q-43 28 -43 53zM831 281q0 125 92.5 216t215.5 91q125 0 219 -91t94 -216t-94 -216.5t-219 -91.5q-123 0 -215.5 91.5t-92.5 216.5z M952 285q0 -74 55.5 -136.5t133.5 -62.5q86 0 138 61.5t52 137.5q0 74 -58.5 129t-131.5 55q-78 0 -133.5 -54t-55.5 -130z" />
<glyph unicode="&#x26;" horiz-adv-x="1581" d="M88 350q0 111 65.5 216.5t198.5 178.5q-119 188 -119 342q0 178 129.5 277.5t301.5 99.5q190 0 288.5 -96t98.5 -242q0 -195 -205 -321l-60 -31l-10 8q63 125 64 299q0 135 -58.5 210t-142.5 75q-90 0 -143.5 -69.5t-53.5 -178.5q0 -139 148.5 -330.5t370.5 -373.5l37 67 l40 71l39 63q29 46 44 64l43 51q28 34 50 48l53 33q30 18 60.5 25.5t65.5 7.5q90 0 90 -84l-4 -45q-14 2 -41 2q-31 0 -59.5 -5t-55.5 -21l-47 -27q-20 -12 -45 -40l-39 -44q-14 -16 -40 -55l-37 -54q-11 -16 -37.5 -61t-37.5 -60q287 -219 457 -260q-20 -111 -139 -110 q-172 0 -443 194q-172 -205 -419 -205q-176 0 -292 113.5t-116 267.5zM317 414q0 -133 77 -225.5t198 -92.5q133 0 248 135q-135 104 -262 236q-109 109 -189 219q-72 -108 -72 -272z" />
<glyph unicode="'" horiz-adv-x="366" d="M92 1559q25 8 88 8q55 0 70.5 -13.5t15.5 -56.5q0 -41 -3 -119t-3 -108v-27q0 -94 8 -158q-33 -8 -78 -8q-57 0 -75.5 14.5t-18.5 55.5t3 118.5t3 108.5v43q0 74 -10 142z" />
<glyph unicode="(" horiz-adv-x="663" d="M117 561q0 354 134 610t339 293l6 -8q-96 -84 -196.5 -329.5t-100.5 -565.5q0 -334 107.5 -616.5t199.5 -360.5l-6 -8q-127 14 -237.5 149.5t-178 358.5t-67.5 477z" />
<glyph unicode=")" horiz-adv-x="663" d="M57 -416q92 78 200 360.5t108 616.5q0 319 -100.5 565t-196.5 330l6 8q205 -37 339 -293t134 -610q0 -254 -67.5 -477t-178.5 -358.5t-238 -149.5z" />
<glyph unicode="*" horiz-adv-x="1091" d="M76 1210q0 53 30 103q25 4 50 4q102 0 199.5 -64.5t129.5 -160.5l-8 -9q-143 57 -291 58q-41 0 -90 -8q-20 34 -20 77zM94 797q33 92 129 157.5t199 65.5q35 0 53 -4l4 -12q-88 -68 -149.5 -153t-83.5 -153q-97 1 -152 99zM397 1479q51 82 162 82q74 -90 74 -220 q0 -137 -76 -221l-10 4q-16 111 -59.5 206.5t-90.5 148.5zM461 748q0 137 76 221l10 -4q16 -111 59 -206t90 -149q-51 -82 -161 -82q-74 87 -74 220zM608 997l8 7q137 -55 289 -56q59 0 92 8q20 -41 21 -77q0 -47 -31 -103q-25 -4 -49 -4q-104 0 -201.5 64.5t-128.5 160.5z M616 1083q88 70 148.5 155t83.5 153q96 0 151 -99q-33 -92 -129 -158.5t-198 -66.5q-29 0 -54 6z" />
<glyph unicode="+" horiz-adv-x="909" d="M88 596q0 88 47 88q115 -10 250 -10v67q0 166 -10 224q41 8 92 8q66 0 65 -29q-6 -125 -8 -270h66q166 0 223 10q8 -41 8 -92q0 -66 -28 -66q-123 6 -269 9v-52q0 -180 8 -237q-33 -6 -69 -6q-88 0 -88 47q8 113 10 248h-53q-180 0 -238 -9q-6 33 -6 70z" />
<glyph unicode="," horiz-adv-x="483" d="M-12 -174l10 10q35 -20 70 -20q59 0 99 39t40 98q0 27 -17.5 45t-37 26.5t-37 34t-17.5 66.5q0 57 38 94t93 37q78 0 118 -60.5t40 -150.5q0 -115 -64.5 -202t-183.5 -87q-49 0 -87 17.5t-52 33.5z" />
<glyph unicode="-" horiz-adv-x="1032" d="M150 565q0 88 47 88q129 -10 274 -10h180q166 0 223 10q8 -41 9 -92q0 -66 -29 -65q-125 6 -272 8h-189q-180 0 -237 -8q-6 32 -6 69z" />
<glyph unicode="." horiz-adv-x="468" d="M96 117q0 57 41 98t96 41q57 0 98.5 -41t41.5 -98q0 -55 -41 -96t-99 -41q-55 0 -96 41t-41 96z" />
<glyph unicode="/" horiz-adv-x="563" d="M57 -283q0 12 262 1493q27 164 27 224q41 0 92 -9q59 -10 60 -39q0 -8 -57 -332l-124 -707q-68 -382 -79 -456q-29 -174 -31 -235h-17q-10 0 -35.5 3t-45 8t-36 18.5t-16.5 31.5z" />
<glyph unicode="0" horiz-adv-x="1232" d="M129 596q0 295 128 474t359 179q233 0 360.5 -169t127.5 -451q0 -299 -128 -479.5t-360 -180.5q-233 0 -360 170t-127 457zM328 647q0 -225 75.5 -370.5t219.5 -145.5q121 0 201.5 125t80.5 322q0 221 -76.5 365t-222.5 144q-117 0 -197.5 -123.5t-80.5 -316.5z" />
<glyph unicode="1" horiz-adv-x="925" d="M94 35q0 47 39 51q162 20 197 41q16 129 16 297v543q0 82 -29.5 118.5t-107.5 44.5l-37 5q-59 6 -68 18q-6 10 -6 33l11 53q61 -10 221 -10q115 0 251 5t193 5q14 0 24.5 -5t14.5 -16.5t6 -19.5t3 -26.5t1 -24.5l-53 -4q-123 -10 -160 -42t-37 -153v-604l9 -213 q53 -27 221 -45q31 -4 31 -43l-3 -53q-55 10 -231 10h-260q-188 0 -244 -10q-2 25 -2 45z" />
<glyph unicode="2" horiz-adv-x="1110" d="M76 -2q12 68 33 100q35 57 108 128l145 135q72 65 141.5 137.5t114 163t44.5 184.5q0 102 -54.5 175t-177.5 73q-160 0 -285 -154l-10 6q12 141 122 222t259 81q197 0 302.5 -112.5t105.5 -268.5q0 -106 -52.5 -203.5t-135.5 -171t-167 -132.5l-169 -116 q-85 -58 -119 -98l4 -6h2q133 41 547 41q129 0 160.5 -35.5t45.5 -162.5q-205 16 -481 16h-151q-25 0 -75 1t-77 1q-96 0 -170 -10z" />
<glyph unicode="3" horiz-adv-x="1089" d="M98 -16l11 10q113 -104 278 -105q145 0 227 89.5t82 211.5q0 131 -88 231.5t-250 110.5q-39 0 -39 21l17 59l119 19q78 12 134 90t56 160q0 88 -58.5 150.5t-174.5 62.5q-160 0 -285 -154l-10 10q14 133 124.5 216t256.5 83q186 0 292.5 -99t106.5 -245 q0 -100 -73.5 -185t-182.5 -118l2 -10q147 -33 228 -136.5t81 -228.5q0 -186 -135 -329.5t-368 -143.5q-127 0 -225.5 52.5t-125.5 177.5z" />
<glyph unicode="4" horiz-adv-x="1165" d="M37 367l553 854q78 18 112 18q72 0 117 -34t45 -93q0 -438 -2 -661l228 26q2 -59 2 -69q0 -27 -5.5 -46.5t-11.5 -33t-21.5 -22.5t-24.5 -13t-35.5 -6t-38.5 -2h-45h-48q0 -55 2 -172t2 -185q0 -80 -27.5 -109.5t-84.5 -29.5q-16 0 -146 21q27 41 31 483q-18 0 -60 1 t-69 1h-365q-73 2 -108 72zM240 442l4 -8q111 25 245 25q47 0 150 -4q-6 553 -8 583h-10z" />
<glyph unicode="5" horiz-adv-x="1079" d="M98 -20l11 4q113 -90 270.5 -90t248.5 111.5t91 262.5q0 154 -89 262.5t-253 108.5q-90 0 -217 -27l-10 9l49 608h266q113 0 200 2t130 5t70.5 6t33.5 5l6 2q0 -201 -162 -200q-348 0 -417 30l-17 -348q76 18 172 19q92 0 174 -22.5t157 -74t119 -147.5t44 -230 q0 -217 -154.5 -369.5t-382.5 -152.5q-123 0 -225.5 57.5t-114.5 168.5z" />
<glyph unicode="6" horiz-adv-x="1222" d="M156 664q0 111 24.5 223t75.5 215.5t124 184.5t177.5 129t224.5 48q80 0 139.5 -22.5t86 -56t42 -66.5t15.5 -55l2 -23l-12 -6q-10 12 -29.5 29.5t-76 46t-109.5 28.5q-143 0 -242.5 -109.5t-141.5 -265t-42 -337.5q0 -238 72.5 -403t207.5 -165q88 0 136.5 91.5 t48.5 222.5q0 182 -89.5 303t-289.5 135l-6 10q57 70 180 70q211 0 328.5 -125t117.5 -303q0 -190 -121.5 -342t-334.5 -152q-260 0 -384 192t-124 503z" />
<glyph unicode="7" horiz-adv-x="1095" d="M41 1249q49 -20 451 -20q502 0 567 10q0 -16 -21.5 -77.5t-48.5 -110.5q-193 -352 -508 -1069q-57 -129 -126.5 -173.5t-184.5 -44.5l-64 11v10q72 51 177 199q102 139 280 505.5t242 548.5l-6 9q-84 -23 -596 -23q-82 0 -122 62.5t-40 162.5z" />
<glyph unicode="8" horiz-adv-x="1214" d="M135 336q0 82 30 148.5t73 103.5t86 62.5t73 33.5l29 8l10 -10q-74 -106 -74 -276q0 -150 56.5 -247.5t179.5 -97.5q104 0 166.5 72t62.5 178q0 104 -49 182t-122 119l-158 86l-159 85q-73 40 -122 113t-49 173q0 160 132 277.5t318 117.5q217 0 334 -99t117 -265 q0 -207 -215 -316l-80 -32l-12 8q72 119 72 311q0 141 -67 221t-157 80q-82 0 -140 -68.5t-58 -195.5q0 -92 36.5 -160.5t95 -111.5t130.5 -77l143 -66q72 -32 130.5 -69.5t95 -98t36.5 -140.5q0 -170 -125 -293t-350 -123q-223 0 -346 106.5t-123 260.5z" />
<glyph unicode="9" horiz-adv-x="1222" d="M100 756q0 190 122 341.5t335 151.5q260 0 384 -191.5t124 -502.5q0 -111 -24.5 -223.5t-76 -216t-124 -184.5t-177 -129t-225.5 -48q-80 0 -139 22.5t-86 55.5t-42 66.5t-15 56.5l-2 22l12 7q10 -12 29.5 -29.5t76 -46.5t109.5 -29q143 0 242.5 109.5t141.5 265.5 t42 338q0 238 -72.5 402.5t-208.5 164.5q-88 0 -136 -91t-48 -222q0 -182 89 -303t290 -135l6 -11q-57 -70 -180 -69q-211 0 -329 125t-118 303z" />
<glyph unicode=":" horiz-adv-x="555" d="M139 106q0 57 41 98.5t96 41.5q57 0 98.5 -41t41.5 -99q0 -55 -41 -96t-99 -41q-55 0 -96 41t-41 96zM139 915q0 57 41 98.5t96 41.5q57 0 98.5 -41t41.5 -99q0 -55 -41 -96t-99 -41q-55 0 -96 41t-41 96z" />
<glyph unicode=";" horiz-adv-x="563" d="M33 -174l10 10q35 -20 70 -20q59 0 99 39t40 98q0 27 -17.5 45t-37 26.5t-37 34t-17.5 66.5q0 57 38 94t93 37q78 0 118 -60.5t40 -150.5q0 -115 -64.5 -202t-183.5 -87q-49 0 -87 17.5t-52 33.5zM137 915q0 57 41 98.5t96 41.5q57 0 98.5 -41t41.5 -99q0 -55 -41 -96 t-99 -41q-55 0 -96 41t-41 96z" />
<glyph unicode="&#x3c;" horiz-adv-x="894" d="M74 631q0 25 20 37q545 291 623 356q72 -76 71 -123q0 -8 -33.5 -31.5t-96.5 -58.5l-120 -66l-140 -73l-119 -64v-10q80 -51 215 -122l218 -116q83 -45 83 -57q0 -23 -18.5 -55.5t-35.5 -54.5l-18 -21q-88 74 -586 338q-25 12 -44 49t-19 72z" />
<glyph unicode="=" horiz-adv-x="1058" d="M162 449q0 88 47 88q129 -10 274 -11h181q166 0 223 11q8 -41 8 -93q0 -66 -29 -65q-125 6 -272 8h-188q-180 0 -238 -8q-6 33 -6 70zM162 768q0 88 47 88q129 -10 274 -10h181q166 0 223 10q8 -41 8 -92q0 -66 -29 -66q-125 6 -272 9h-188q-180 0 -238 -9q-6 33 -6 70z " />
<glyph unicode="&#x3e;" horiz-adv-x="894" d="M100 303q0 12 83 57l218 116q135 71 215 122v10l-119 64l-140 73l-120 66q-62 35 -96.5 58.5t-34.5 31.5q0 20 18.5 51t35.5 52l18 20q78 -66 623 -356q20 -12 20 -37q0 -35 -19.5 -72t-43.5 -49q-498 -264 -586 -338q-72 80 -72 131z" />
<glyph unicode="?" horiz-adv-x="798" d="M115 1389q0 35 30 170h11q25 -78 211 -138q367 -115 366 -315q0 -72 -45 -137.5t-108 -117.5l-128 -103q-65 -51 -110 -117t-45 -137.5t37 -122.5q-53 -8 -66 -9q-94 0 -94 138q0 76 34 144.5t82 118.5t96 95t82 91t34 87q0 53 -60.5 83t-133 45.5t-133 71t-60.5 153.5z M135 104.5q0 51.5 37 89t88 37.5t89 -37.5t38 -89t-38 -88t-89 -36.5t-88 36.5t-37 88z" />
<glyph unicode="@" horiz-adv-x="2009" d="M109 422q0 193 64.5 376t183 332.5t309 241.5t419.5 92q354 0 589 -220t235 -623q0 -147 -59.5 -301t-182.5 -268.5t-278 -114.5q-94 0 -169 56t-77 148l-8 6q-49 -92 -128 -135t-161 -43q-141 0 -232.5 123t-91.5 293q0 287 179.5 478.5t439.5 191.5q141 0 237 -31 q-33 -389 -32 -637q0 -80 2 -123t11 -93t30.5 -71.5t56.5 -21.5q109 0 198 137t89 356q0 182 -57.5 327.5t-154 234t-213 134.5t-243.5 46q-184 0 -333.5 -72t-242 -190.5t-141.5 -266t-49 -305.5q0 -190 62.5 -360t199.5 -289t324 -123q49 0 90 8q-8 -51 -14.5 -74.5 t-22.5 -54t-46 -43t-77 -12.5q-162 0 -299 79t-224 207t-135 285.5t-48 319.5zM760 418q0 -104 48 -197.5t144 -93.5q195 0 195 469l-6 369q-14 0 -29.5 -1t-56.5 -12.5t-76 -30t-77 -59.5t-71.5 -96t-50 -145t-20.5 -203z" />
<glyph unicode="A" d="M16 0v10q57 43 134 256l428 1194q8 0 22 -2t54 -16.5t75 -38t72 -73.5t57 -118q72 -233 182.5 -557.5t180.5 -478.5q45 -100 60 -129t34 -37v-10q-78 -20 -150 -20q-154 0 -188 122q-61 213 -115 375q-127 4 -205 4q-123 0 -295 -8q-23 -68 -45 -144l-34 -118 q-12 -41 -28.5 -87t-29 -68.5t-33 -42t-44 -26.5t-58.5 -7q-16 0 -34.5 5t-28.5 11zM395 586q131 -4 219 -4q76 0 211 4q-143 424 -219 616h-10z" />
<glyph unicode="B" d="M188 1438q80 -4 164 -4h254q244 0 362.5 -94.5t118.5 -237.5q0 -88 -50 -179.5t-142 -152.5v-10q143 -35 235.5 -124t92.5 -226q0 -186 -130 -310.5t-350 -124.5q-49 0 -200.5 12.5t-343.5 12.5q23 57 22 567q0 356 -12 652zM455 645q0 -25 1 -76t1 -80q0 -39 1 -87 t3 -108.5t2 -94.5q2 -55 69.5 -80t147.5 -25q88 0 146.5 24.5t86 69.5t36.5 89.5t9 103.5q0 96 -40.5 164.5t-114.5 104.5t-157 52.5t-189 18.5q0 -12 -1 -37t-1 -39zM457 815q219 -4 350 -31q68 119 67 238q0 139 -76.5 221t-271.5 82h-41l-22 -2q0 -94 -3 -280.5 t-3 -227.5z" />
<glyph unicode="C" horiz-adv-x="1439" d="M113 668q0 205 86 384t259 295.5t396 116.5q158 0 308.5 -55t150.5 -139q0 -33 -25.5 -82t-56.5 -82h-12q-76 119 -187.5 181.5t-228.5 62.5q-184 0 -311 -151.5t-127 -432.5q0 -162 54 -298t173 -227t280 -91q266 0 467 167l7 -6q-29 -141 -180.5 -241.5t-346.5 -100.5 q-176 0 -314 58.5t-222 158t-127 222.5t-43 260z" />
<glyph unicode="D" horiz-adv-x="1622" d="M188 1434h455q135 0 254 -20.5t232.5 -72t195.5 -130t132 -204.5t50 -288q0 -317 -199.5 -527t-496.5 -210q-70 0 -248 9t-364 9q23 57 22 567q0 356 -12 652q-11 199 -21 215zM457 575q0 -186 6 -376q2 -96 282 -97q229 0 363.5 166t134.5 412q0 172 -58.5 301 t-157.5 201.5t-216 107.5t-248 35q-68 0 -100 -2q-6 -496 -6 -748z" />
<glyph unicode="E" horiz-adv-x="1191" d="M188 1434h377l453 20q-6 -49 -11.5 -70.5t-20.5 -50t-48 -39t-86 -10.5q-109 0 -206 8t-140 17l-43 8q0 -98 -4 -504h315q37 0 67.5 5t43.5 9l10 7q-4 -82 -26.5 -117t-96.5 -35l-315 12v-213q0 -61 4 -179t4 -167l375 10q199 6 274 45q2 -23 2 -57q0 -94 -38 -118.5 t-156 -24.5l-723 10q23 57 22 567q0 356 -12 652q-11 199 -21 215z" />
<glyph unicode="F" horiz-adv-x="1054" d="M186 1434h377l453 20q-6 -49 -11.5 -70.5t-20.5 -50t-48 -39t-86 -10.5q-104 0 -201.5 8t-142.5 17l-45 8q0 -102 -4 -516h315q37 0 67.5 5t41.5 9l12 6q-4 -82 -26.5 -116.5t-96.5 -34.5l-315 12v-193q0 -55 4 -179t4 -191q0 -139 -133 -139q-10 0 -137 20q27 57 26 567 q0 356 -12 652q-11 199 -21 215z" />
<glyph unicode="G" horiz-adv-x="1492" d="M113 674q0 199 84 376t258 295.5t401 118.5q162 0 317.5 -53t155.5 -141q0 -35 -25.5 -88.5t-56.5 -85.5h-12q-80 121 -192.5 185.5t-231.5 64.5q-186 0 -316 -151t-130 -427q0 -170 57 -319.5t179 -249t286 -99.5q123 0 223 31q10 86 10 191q0 315 -33 340q27 10 97 10 q178 0 178 -140q0 -55 -6 -180t-6 -180l4 -170l-11 -10q-33 6 -69 6q-68 0 -228.5 -14.5t-203.5 -14.5q-180 0 -323.5 58.5t-229.5 159t-131 224.5t-45 263z" />
<glyph unicode="H" horiz-adv-x="1630" d="M186 1436q63 18 113 18q72 0 117 -34t45 -93q0 -98 -4 -504q106 -8 329 -8q199 0 396 8q-2 180 -11 396q-8 199 -20 217q63 18 113 18q72 0 116.5 -34t44.5 -93q0 -90 -4 -261t-4 -257q0 -678 27 -809q-18 -2 -44 -8t-47.5 -9t-49.5 -3q-74 0 -103 41.5t-29 128.5 q0 84 5.5 270t5.5 274q-123 8 -353 8q-182 0 -374 -8v-205q0 -55 4 -179t4 -191q0 -139 -133 -139q-10 0 -137 20q27 57 26 567q0 356 -12 652q-11 199 -21 217z" />
<glyph unicode="I" horiz-adv-x="661" d="M182 1436q63 18 113 18q72 0 117 -34t45 -93q0 -90 -4 -261t-4 -257q0 -532 34 -805q-127 -20 -137 -20q-133 0 -133 139v631q0 246 -10 465q-11 199 -21 217z" />
<glyph unicode="J" horiz-adv-x="663" d="M35 -420q121 86 152.5 298t31.5 806q0 240 -12 535q-10 199 -21 217q63 18 113 18q72 0 117 -34t45 -93q0 -66 -3 -328t-3 -348q0 -94 -2 -358t-2 -322q0 -201 -115 -301t-297 -100z" />
<glyph unicode="K" horiz-adv-x="1351" d="M186 1436q63 18 93 18q74 0 128 -35t54 -92q0 -31 -3 -231.5t-3 -325.5h10q336 326 444.5 453t122.5 217q45 2 64 2q68 0 96.5 -14.5t28.5 -49.5q0 -18 -17.5 -46.5t-55.5 -71.5l-73 -79t-98 -95l-100 -91l-111 -98l-100 -88v-10l51 -72l123 -163l171 -215 q81 -97 175 -192.5t155 -127.5v-15q-80 -27 -200 -26q-86 0 -179.5 70.5t-168 172t-139.5 203.5l-113 177q-49 75 -70 81l-16 4v-207q0 -55 4 -179t4 -191q0 -139 -133 -139q-10 0 -137 20q27 57 26 567q0 356 -12 652q-11 199 -21 217z" />
<glyph unicode="L" horiz-adv-x="1136" d="M186 1436q59 18 93 18q74 0 128 -35t54 -92q0 -129 -5 -321.5t-5 -262.5q0 -410 4 -608l374 10q199 6 275 45q2 -23 2 -57q0 -94 -38 -118.5t-157 -24.5l-714 10q23 57 22 567q0 389 -12 652q-11 199 -21 217z" />
<glyph unicode="M" horiz-adv-x="1789" d="M186 1434q49 16 119 16q135 0 158 -39l46 -83l40 -71l262 -462q74 -131 96 -193h11q18 51 78 169l159 304l139 264q31 59 67 85t91 26q74 0 125 -10q0 -90 -1 -317.5t-1 -313.5q0 -537 35 -809q-127 -20 -137 -20q-133 0 -134 139v1044l-8 6q-6 -16 -94 -184l-207 -395 q-27 -49 -57.5 -131t-48.5 -140l-19 -57h-33q-37 0 -43 14q-49 113 -182 342l-170 295q-106 184 -133 246l-8 -8q0 -158 9 -509t9 -521q0 -88 -12 -113.5t-63 -25.5q-18 0 -41 5t-37 9l-13 6q31 55 31 565q0 356 -12 652q-11 199 -21 215z" />
<glyph unicode="N" horiz-adv-x="1562" d="M186 1434q49 16 105 16q84 0 106 -35q90 -133 217 -285l398 -479q178 -217 205 -272l8 8q-4 76 -7.5 398.5t-9.5 433.5q-10 199 -20 217q35 18 76 18q61 0 77.5 -26.5t16.5 -90.5q0 -115 -5 -376t-5 -431q0 -449 18 -530q-45 -12 -100 -12q-59 0 -97 55q-70 109 -225 295 l-405 485q-182 221 -195 269l-8 -9q0 -158 9 -475t9 -487q0 -88 -12 -113.5t-63 -25.5q-18 0 -41 5t-37 9l-13 6q31 55 31 565q0 356 -12 652q-11 199 -21 215z" />
<glyph unicode="O" horiz-adv-x="1681" d="M115 682q0 154 48 293t138 248.5t234.5 175t320.5 65.5q227 0 393 -98t243 -247.5t77 -325.5q0 -160 -48 -306.5t-138.5 -262t-234.5 -185.5t-321 -70q-336 0 -524 209t-188 504zM379 731q0 -168 53 -313.5t165 -240.5t259 -95q139 0 244.5 98.5t155 245.5t49.5 317 q0 156 -53.5 292t-165 226.5t-261.5 90.5q-139 0 -243.5 -92.5t-153.5 -230.5t-49 -298z" />
<glyph unicode="P" horiz-adv-x="1196" d="M182 1440q78 -6 127 -6h291q262 0 399.5 -123t137.5 -295q0 -217 -174.5 -341t-401.5 -124q-63 0 -110 8q4 -336 32 -559q-127 -20 -137 -20q-133 0 -133 139v635q0 246 -10 465q-4 88 -9.5 143t-9.5 68zM449 655q25 -4 71 -4q168 0 264.5 103.5t96.5 242.5 q0 135 -93.5 231.5t-267.5 96.5h-63q-8 -346 -8 -516v-154z" />
<glyph unicode="Q" horiz-adv-x="1681" d="M115 682q0 154 48 293t138 248.5t234.5 175t320.5 65.5q227 0 393 -98t243 -247.5t77 -325.5q0 -154 -44 -294.5t-126 -254t-213 -186t-293 -85.5v-12q111 -88 275.5 -149.5t334.5 -61.5q162 0 238 39l10 -6q10 -57 10 -90q0 -94 -59.5 -124t-196.5 -30q-72 0 -162 21.5 t-196.5 66.5t-211 135.5t-175.5 208.5q-305 23 -475 226.5t-170 484.5zM379 731q0 -168 53 -313.5t165 -240.5t259 -95q139 0 244.5 98.5t155 245.5t49.5 317q0 156 -53.5 292t-165 226.5t-261.5 90.5q-139 0 -243.5 -92.5t-153.5 -230.5t-49 -298z" />
<glyph unicode="R" horiz-adv-x="1345" d="M188 1438q80 -4 164 -4h254q256 0 393.5 -103.5t137.5 -265.5q0 -102 -34 -181t-83 -121t-98.5 -68.5t-81.5 -35.5l-35 -6v-10l101 -146q62 -89 201.5 -257t215.5 -211v-15q-121 -27 -180 -26q-90 0 -174 63.5t-147.5 157.5t-120 189.5t-114 170t-104.5 88.5l-28 9 q0 -2 5 -207t5 -340q0 -139 -133 -139q-12 0 -139 20q27 57 26 567q0 432 -10 652zM455 764q66 -23 176 -23q119 0 191.5 68t72.5 213q0 135 -88 219t-281 84h-63q-8 -229 -8 -561z" />
<glyph unicode="S" horiz-adv-x="1206" d="M104 168q0 33 50 121h14q6 -8 18.5 -20.5t55.5 -45.5t90 -58.5t120.5 -46t151.5 -20.5q139 0 203.5 61.5t64.5 155.5q0 88 -75.5 155t-184 115t-216 101t-183.5 143.5t-76 214.5q0 193 152.5 306.5t359.5 113.5q68 0 156 -13t170 -51t82 -91q0 -86 -80 -166h-14l-17 22 q-10 14 -46 51t-74 65t-98 50.5t-122 22.5q-104 0 -171.5 -65.5t-67.5 -164.5q0 -88 75.5 -150.5t183 -107.5t216 -96t184.5 -143t76 -224q0 -201 -159 -317.5t-368 -116.5q-156 0 -313.5 55.5t-157.5 143.5z" />
<glyph unicode="T" horiz-adv-x="1226" d="M29 1356q0 88 47 88q688 -10 895 -10q106 0 223 20q8 -51 8 -102q0 -68 -39 -68q-195 2 -420 4q0 -59 -4 -224t-4 -255q0 -537 35 -809q-127 -20 -137 -20q-133 0 -133 139v635q0 244 -11 463q-4 57 -4 73q-131 2 -213 2q-109 0 -237 -18q-6 45 -6 82z" />
<glyph unicode="U" horiz-adv-x="1533" d="M172 1436q76 18 113 18q72 0 116.5 -34t44.5 -93q0 -68 -1 -348.5t-1 -370.5q0 -248 101.5 -382t279.5 -134q176 0 277.5 134t101.5 382q0 586 -22 828q61 18 92 18q53 0 66.5 -28.5t13.5 -98.5q0 -90 -8.5 -348t-8.5 -344q0 -666 -563 -666q-266 0 -421.5 160 t-155.5 494q0 213 -2 373.5t-6.5 239.5t-8.5 124t-6 59.5t-2 16.5z" />
<glyph unicode="V" horiz-adv-x="1361" d="M16 1423q47 27 187 27q57 0 107 -35t65 -98q41 -170 153.5 -493.5t216.5 -587.5h9l120 366l132 414q96 303 133 368.5t125 65.5q29 0 52 -6t32 -10l10 -7v-10q-8 -6 -23.5 -20.5t-56.5 -82t-74 -161.5l-354 -983l-59 -201q-10 0 -26.5 2t-64 16.5t-86.5 38t-79.5 74 t-61.5 115.5q-219 729 -358 1028q-60 127 -99 180z" />
<glyph unicode="W" horiz-adv-x="2062" d="M16 1423q47 27 187 27q57 0 107 -35t65 -98q43 -172 155.5 -498.5t212.5 -580.5h11q199 543 198 671q0 156 -155 510l-2 4q20 27 149 27q57 0 108.5 -36t63.5 -97q39 -180 139.5 -511t188.5 -568h10q119 346 248 772q96 307 133 373.5t129 66.5q29 0 51.5 -6t32.5 -10 l8 -7v-10q-78 -59 -151 -264l-355 -983l-59 -201q-10 0 -27.5 2t-64.5 16.5t-86 38t-80 74t-59 115.5l-136 481h-10q-6 -45 -20 -88l-158 -438l-59 -201q-10 0 -26.5 1t-63 14.5t-85 37t-80.5 73.5t-63 120q-238 768 -358 1028q-60 127 -99 180z" />
<glyph unicode="X" horiz-adv-x="1380" d="M66 1423v11q80 16 176 16q72 0 115.5 -16.5t62 -36t59.5 -72.5q33 -43 66 -102l89 -167l93 -177h10l267 444q41 70 81.5 98.5t116.5 28.5q66 0 105 -16v-11q-127 -70 -508 -673q154 -270 283.5 -453.5t183.5 -233.5l51 -49v-10q-78 -20 -148 -20q-61 0 -104 14t-82 41 t-91 101.5t-101 156.5l-144 248h-10q-227 -383 -266 -436q-78 -111 -152 -123q-14 -2 -33 -2q-63 0 -116 22v10q123 59 497 660q-8 16 -72 135l-103 183l-100 164q-62 99 -118.5 164.5t-107.5 100.5z" />
<glyph unicode="Y" d="M25 1423v11q57 16 155 16q96 0 131 -21.5t70 -85.5q143 -260 332 -514h10l145 241l105 181q33 57 71.5 110.5t71.5 71t80 17.5q25 0 53.5 -4t44.5 -8l17 -4v-11q-70 -55 -129 -133q-70 -88 -215.5 -309t-184.5 -293q0 -426 35 -688q-129 -20 -137 -20q-133 0 -133 139 v565q-43 45 -123 164l-172 265q-92 146 -127 196q-18 27 -43 55.5t-41 44.5z" />
<glyph unicode="Z" horiz-adv-x="1230" d="M82 1454q131 -20 532 -20h480v-33q0 -86 -39 -146q-143 -221 -314.5 -530t-253.5 -479q-23 -41 -71 -107l4 -8q45 23 573 23q115 0 143 -33q23 -27 22 -105q0 -17 -1 -36q-137 20 -569 20h-477q0 12 -1 26.5t-1 24.5q0 70 28 117q98 152 326.5 558.5t308.5 571.5l-4 9 q-63 -23 -526 -23q-86 0 -123 40t-37 130z" />
<glyph unicode="[" horiz-adv-x="700" d="M190 -270q10 1290 11 1491q0 156 -11 213h445q8 -25 8 -70q0 -61 -29 -61h-268q-6 -983 -6 -1387v-94h295q8 -25 8 -66q0 -74 -29 -73h-335q-89 0 -89 47z" />
<glyph unicode="\" horiz-adv-x="585" d="M55 1409q66 27 119 27q35 0 41 -21q4 -12 60 -339l122 -700l80 -454q33 -180 51 -233q-55 -23 -100 -23q-53 0 -61 31q-6 23 -63 345l-122 706l-76 442q-31 162 -51 219z" />
<glyph unicode="]" horiz-adv-x="698" d="M57 -244q0 41 9 66h294v94q0 403 -6 1387h-268q-29 0 -29 61q0 45 9 70h444q-10 -57 -10 -213l10 -1491q0 -47 -88 -47h-336q-29 -1 -29 73z" />
<glyph unicode="^" horiz-adv-x="1009" d="M78 821q63 76 350 613q14 25 59 24q74 0 105 -57q0 -2 35 -66l74 -135l86 -153l85 -146q39 -63 58 -86q-74 -72 -125 -72q-14 0 -21 11q-170 326 -278 506h-10l-273 -500q-6 -10 -20 -10q-20 0 -52 18t-53 35z" />
<glyph unicode="_" horiz-adv-x="1251" d="M57 -109q0 88 47 89q129 -10 275 -11h584q166 0 223 11q8 -41 8 -93q0 -66 -29 -65q-125 6 -272 8h-592q-180 0 -238 -8q-6 32 -6 69z" />
<glyph unicode="`" horiz-adv-x="819" d="M188 1436l17 26q10 16 51 44t90 28q111 -250 283 -346v-10q-18 -8 -64 -9q-96 0 -224 84.5t-153 182.5z" />
<glyph unicode="a" horiz-adv-x="1034" d="M74 244q0 104 54 184t142 122t178.5 61.5t182.5 21.5v18q0 137 -42 203t-155 66q-145 0 -282 -123l-9 8q25 96 136.5 173t242.5 77q104 0 173 -29t101.5 -84t44 -111.5t11.5 -136.5q0 -53 -3 -177t-3 -181v-25q0 -227 102 -227l78 29l8 -7q-2 -6 -6 -14t-22.5 -29.5 t-42 -39t-65.5 -30.5t-91 -13q-72 0 -122 33.5t-52 109.5l-8 4q-37 -68 -112 -113t-167 -45q-125 0 -198.5 79t-73.5 196zM305 283q0 -86 39 -127t98 -41q57 0 120 43t63 98q0 39 3 139.5t3 155.5l-69 -13q-26 -5 -81 -25.5t-88 -46.5t-60.5 -74t-27.5 -109z" />
<glyph unicode="b" horiz-adv-x="1171" d="M115 1550l6 9q66 0 109.5 -7.5t74.5 -28t47.5 -42t24.5 -65.5t10 -83t2 -110.5t-5 -153.5t-11 -127l-4 -47l6 -2q4 6 10 17.5t33.5 39t61.5 49t94.5 39t130.5 17.5q172 0 274 -133.5t102 -333.5q0 -279 -153.5 -449t-448.5 -170q-135 0 -229 49.5t-94 137.5q0 57 2 163.5 t2 155.5q0 76 -1 231.5t-1 231.5q0 569 -43 612zM371 395q0 -82 3 -130t15 -100t42 -77t77 -25q156 0 242 142.5t86 335.5q0 152 -60.5 267.5t-161.5 115.5q-92 0 -155.5 -66.5t-77.5 -181.5q-10 -88 -10 -281z" />
<glyph unicode="c" horiz-adv-x="1069" d="M82 479q0 242 156.5 409t400.5 167q53 0 124 -12.5t138.5 -48.5t67.5 -85q0 -61 -72 -137h-10q-4 8 -13.5 20.5t-39 44t-61.5 56.5t-81 45t-98 20q-94 0 -159.5 -65.5t-90.5 -152.5t-25 -183q0 -186 94.5 -311t248.5 -125q70 0 152.5 33.5t131.5 66.5l47 33l8 -8 q-4 -10 -11 -29.5t-41 -67t-77 -84t-122.5 -66.5t-174.5 -30q-205 0 -349 147.5t-144 362.5z" />
<glyph unicode="d" horiz-adv-x="1220" d="M90 440q0 272 154.5 439.5t447.5 167.5q53 0 111 -11q0 125 -8 285q-4 84 -13.5 141.5t-15.5 73.5l-8 14l6 9q123 -2 193.5 -34t70.5 -118q0 -92 -5 -301t-5 -338q0 -248 10 -549q4 -135 92 -135l78 29l8 -7q-2 -6 -6 -14t-22.5 -29.5t-42 -39t-65.5 -30.5t-91 -13 q-74 0 -123 33.5t-51 113.5l-8 4l-12 -17q-7 -11 -33.5 -39t-60.5 -49.5t-91 -39t-123 -17.5q-176 0 -281.5 130t-105.5 341zM336 492q0 -61 9 -122t32.5 -125.5t72 -104.5t113.5 -40q84 0 138.5 57.5t75 128t22.5 150.5q6 203 6 250v191q0 74 -141 73q-154 0 -241 -136 t-87 -322z" />
<glyph unicode="e" horiz-adv-x="1052" d="M88 485.5q0 225.5 135 397.5t350 172q188 0 282.5 -87t94.5 -206q0 -96 -63.5 -161.5t-148.5 -91.5t-183 -26q-53 0 -109.5 14.5t-85.5 28.5l-30 15l-8 -4q0 -188 85 -301t240 -113q158 0 316 113l6 4l10 -11q-2 -10 -9 -27.5t-38 -62.5t-72 -79.5t-119.5 -62.5 t-175.5 -28q-207 0 -342 145.5t-135 371zM324 635q0 -8 28.5 -19.5t74.5 -20.5t87 -9q78 0 135.5 45t57.5 133q0 82 -39 139.5t-121 57.5q-66 0 -121 -67t-78.5 -139.5t-23.5 -119.5z" />
<glyph unicode="f" horiz-adv-x="698" d="M27 -444q72 29 106.5 87t57 253.5t22.5 580.5q0 264 -16.5 341t-77.5 100l-53 20v86q72 0 105.5 24.5t33.5 98.5q0 225 110.5 337.5t300.5 112.5q152 0 245 -66.5t93 -170.5l-10 -6q-66 106 -254 106q-102 0 -181 -66.5t-79 -217.5v-56l-6 -96h147q37 0 65 5t36 11l10 4 q2 -12 2 -55q0 -61 -27.5 -82.5t-87.5 -21.5q-8 0 -67.5 1t-69.5 1q-8 -106 -8 -232q0 -94 3 -326.5t3 -389.5q0 -188 -97 -300t-235 -112q-41 0 -71 18v11z" />
<glyph unicode="g" horiz-adv-x="1056" d="M78 657q0 166 129 276.5t328 110.5q117 0 208 -32q74 2 106 59t40 160q8 0 26 -2l28 -3q9 -1 25.5 -4t24.5 -8l20 -10q11 -6 16 -13t9 -19.5t4 -26.5q0 -70 -61 -116t-147 -66q119 -90 118 -263q0 -168 -129 -277.5t-327 -109.5q-66 0 -95 4q-31 -45 -30 -71 q0 -41 63.5 -63.5t154.5 -36t183 -36t155.5 -84t63.5 -159.5q0 -145 -138 -241.5t-351 -96.5q-190 0 -305 89t-115 187q0 33 15.5 53.5t48 29t52 9.5t58.5 1q2 -43 17.5 -86t46 -89.5t91 -75t140.5 -28.5q100 0 175 44t75 126q0 49 -58.5 75.5t-142.5 41t-168 35 t-142.5 71.5t-58.5 133q0 100 97 187q-250 65 -250 325zM305 700q0 -129 53.5 -211.5t163.5 -82.5q86 0 143.5 73.5t57.5 177.5q0 129 -53.5 212t-163.5 83q-84 0 -142.5 -74t-58.5 -178z" />
<glyph unicode="h" horiz-adv-x="1249" d="M137 0q6 6 13.5 27.5t20.5 165t13 374.5v371q0 567 -45 612l6 9q66 0 110 -7.5t74.5 -28t47 -42t25 -65.5t10.5 -83t2 -110q0 -195 -25 -342l8 -2q35 78 139.5 127t219.5 49q96 0 159.5 -23.5t92 -67.5t38 -88.5t9.5 -105.5q0 -74 -4 -225.5t-4 -245.5q0 -47 2 -74.5 t11 -65.5t31.5 -56.5t57.5 -18.5l78 29l8 -7q-2 -6 -6 -14t-22.5 -29.5t-42 -39t-65.5 -30.5t-91 -13q-78 0 -131.5 39.5t-53.5 125.5t3 247t3 272q0 51 -2 80.5t-11 69.5t-27.5 61.5t-53.5 38t-86 16.5q-92 0 -169 -79t-77 -214q0 -90 4.5 -255t4.5 -263q0 -139 -129 -139 q-48 0 -146 20z" />
<glyph unicode="i" horiz-adv-x="598" d="M127 1026q63 18 100 18q72 0 123 -35.5t51 -95.5q0 -117 -5 -331.5t-5 -282.5q0 -47 2 -74.5t11.5 -65.5t32 -56.5t57.5 -18.5l77 29l9 -7q-2 -6 -6.5 -14t-23 -29.5t-42 -39t-65.5 -30.5t-91 -13q-78 0 -131 39.5t-53 125.5q0 59 4 176t4 175q0 209 -12 341t-22.5 160.5 t-14.5 28.5zM143 1356q0 57 41 98t97 41q57 0 98 -41t41 -98q0 -55 -41 -96t-98 -41q-55 0 -96.5 41t-41.5 96z" />
<glyph unicode="j" horiz-adv-x="567" d="M-4 -420q84 68 114.5 123t50 230.5t19.5 545.5q0 133 -8 330q-10 199 -41 217q63 18 100 18q72 0 123.5 -34.5t51.5 -91.5q0 -66 -4.5 -226t-4.5 -246q0 -94 4.5 -255.5t4.5 -219.5q0 -201 -112 -301t-294 -100zM147 1356q0 57 41 98t97 41q57 0 98 -41t41 -98 q0 -55 -41 -96t-98 -41q-55 0 -96.5 41t-41.5 96z" />
<glyph unicode="k" horiz-adv-x="1110" d="M135 0q23 18 37 221t14 387q0 444 -12 713q-4 84 -13 141.5t-18 73.5l-6 14l6 9q123 -2 194 -34t71 -118q0 -102 -4.5 -315t-4.5 -324v-168h11l26 27l74 73l64 65l53 52l44 44l34 35q18 19 26 32l19 26q10 14 14 25l8 21q4 11 6 24q59 16 111 16q98 0 98 -41 q0 -35 -54 -86t-170 -140t-179 -146v-9q360 -481 526 -602v-10q-49 -20 -162 -20q-98 0 -194.5 80.5t-155.5 178.5l-112 182q-52 85 -70 91l-15 4q0 -66 4.5 -197.5t4.5 -205.5q0 -139 -129 -139q-23 0 -146 20z" />
<glyph unicode="l" horiz-adv-x="595" d="M127 1550l6 9q123 -2 193.5 -34t70.5 -118q0 -102 -4 -315t-4 -324q0 -309 8 -549q4 -135 92 -135l78 29l8 -7q-2 -6 -6 -14t-22.5 -29.5t-42 -39t-65.5 -30.5t-91 -13q-78 0 -131 41.5t-53 136.5q0 76 5 302t5 353q0 289 -10 508q-4 84 -13.5 141.5t-15.5 73.5z" />
<glyph unicode="m" horiz-adv-x="1818" d="M139 0q8 4 19.5 48t20.5 165t9 289q0 111 -8 307q-10 199 -41 217q63 18 101 18q70 0 114.5 -31.5t44.5 -80.5l-8 -51l8 -2q29 74 122 119.5t196 45.5q135 0 203.5 -45t74.5 -118l9 -2q33 74 127 119.5t196 45.5q182 0 240.5 -75.5t58.5 -208.5q0 -72 -4 -220.5 t-4 -240.5q0 -47 2 -74.5t11 -65.5t32 -56.5t57 -18.5l78 29l8 -7q-2 -6 -6 -14t-22.5 -29.5t-42 -39t-65.5 -30.5t-91 -13q-76 0 -130 39.5t-54 125.5q0 84 3 242t3 266q0 66 -4 102t-19.5 80t-52.5 64.5t-98 20.5q-66 0 -112 -41t-67.5 -104.5t-29.5 -116t-8 -99.5 q0 -2 2 -180t2 -186q0 -35 -4 -65t-8.5 -47.5t-16.5 -36.5l-15 -25q-3 -5 -19.5 -21t-16.5 -18q-39 6 -56.5 10t-44 18.5t-38 46t-11.5 82.5q0 84 3.5 246t3.5 270q0 51 -2.5 81t-11.5 70t-27.5 61.5t-53 38t-86.5 16.5q-74 0 -139 -77t-65 -206q0 -90 4 -255t4 -263 q0 -139 -129 -139q-48 0 -146 20z" />
<glyph unicode="n" horiz-adv-x="1251" d="M139 0q8 4 19.5 48t20.5 165t9 289q0 111 -8 307q-10 199 -41 217q63 18 101 18q70 0 114.5 -31.5t44.5 -80.5l-8 -51l8 -2q35 78 139.5 127t219.5 49q96 0 159.5 -23.5t92 -70t38 -91.5t9.5 -110q0 -72 -4 -220.5t-4 -240.5q0 -47 2 -74.5t11 -65.5t31.5 -56.5 t57.5 -18.5l78 29l8 -7q-2 -6 -6 -14t-22.5 -29.5t-42 -39t-65.5 -30.5t-91 -13q-76 0 -130.5 39.5t-54.5 125.5q0 84 3 242t3 266q0 53 -2 84t-11 73t-27.5 64.5t-53.5 39t-86 16.5q-92 0 -168.5 -79t-76.5 -214q0 -90 4 -255t4 -263q0 -139 -129 -139q-48 0 -146 20z" />
<glyph unicode="o" horiz-adv-x="1228" d="M84 487q0 233 143.5 400.5t397.5 167.5q244 0 382 -143.5t138 -344.5q0 -244 -144.5 -421t-396.5 -177q-246 0 -383 152.5t-137 365.5zM334 522q0 -188 76.5 -323.5t214.5 -135.5q129 0 199.5 138.5t70.5 328.5q0 176 -77 303.5t-216 127.5q-129 0 -198.5 -129.5 t-69.5 -309.5z" />
<glyph unicode="p" horiz-adv-x="1208" d="M139 1026q63 18 101 18q70 0 118 -32.5t48 -79.5q0 -18 -5 -35l11 -4q4 6 10 17.5t33.5 39t61.5 49t94.5 39t129.5 17.5q172 0 274.5 -133.5t102.5 -333.5q0 -274 -153.5 -442.5t-448.5 -168.5q-45 0 -102 11q-2 -35 -2 -99q0 -236 37 -344q-129 -20 -144 -20 q-61 0 -93 33.5t-32 124.5q0 74 3 327.5t3 483.5q0 407 -47 532zM408 139q0 -66 137 -65q156 0 241.5 139t85.5 328q0 152 -60 267.5t-161 115.5q-92 0 -155.5 -66.5t-77.5 -181.5q-10 -88 -10 -281v-256z" />
<glyph unicode="q" horiz-adv-x="1179" d="M90 418q0 287 154.5 462t447.5 175q137 0 234.5 -46t97.5 -128q0 -59 -2 -245.5t-2 -238.5q0 -104 2 -246.5t2 -256.5q0 -236 37 -345q-127 -20 -143 -20q-63 0 -98.5 35t-35.5 123q0 307 9 389l4 39l-6 2l-12 -17q-7 -10 -34.5 -34.5t-60.5 -44t-91 -36t-124 -16.5 q-174 0 -276.5 130.5t-102.5 318.5zM336 489q0 -150 60.5 -269.5t158.5 -119.5q106 0 175 90.5t73 260.5q2 55 2 196q0 74 -4 121t-17.5 96t-43 73t-76.5 24q-154 0 -241 -143t-87 -329z" />
<glyph unicode="r" horiz-adv-x="827" d="M133 1026q63 18 100 18q74 0 120 -34.5t46 -96.5l-14 -75l8 -2q41 92 131 150t178 58q100 0 100.5 -79.5t-24.5 -145.5l-10 -4q-115 57 -164 57q-205 0 -205 -393q0 -180 11.5 -299t20.5 -148.5t15 -31.5q-127 -20 -143 -20q-63 0 -96 33.5t-33 123.5q0 63 5 182t5 175 q0 186 -12 317t-22.5 170t-16.5 45z" />
<glyph unicode="s" horiz-adv-x="901" d="M82 115q0 41 41 112h10q14 -16 39 -40.5t107.5 -65.5t173.5 -41q92 0 136 41t44 100q0 57 -55.5 101.5t-133 77t-155.5 72.5t-133.5 110.5t-55.5 167.5q0 139 113 222t266 83q90 0 199.5 -30t109.5 -85q0 -70 -73 -147h-10l-13 18q-8 12 -33.5 42t-53 52.5t-70.5 41 t-86 18.5q-70 0 -115 -44t-45 -112q0 -57 55 -98t133 -73t156 -70t133 -109.5t55 -173.5q0 -145 -117.5 -230.5t-273.5 -85.5q-115 0 -231.5 42.5t-116.5 103.5z" />
<glyph unicode="t" horiz-adv-x="792" d="M88 938v86q61 0 174 92t135 148l47 -17l-41 -223h168q37 0 65 5t36 11l10 4q2 -12 2 -55q0 -61 -27.5 -82.5t-87.5 -21.5l-166 4q-6 -242 -6 -397q0 -88 6.5 -146.5t22.5 -115t53 -85t94 -28.5q45 0 99.5 23.5t85.5 47.5l33 25l10 -8q-2 -10 -8.5 -25.5t-32 -56.5 t-57 -72t-91 -56.5t-129.5 -25.5q-170 0 -239.5 104.5t-69.5 293.5q0 74 4 202.5t4 161.5q0 125 -15.5 157t-78.5 50z" />
<glyph unicode="u" horiz-adv-x="1226" d="M115 1026q78 18 100 18q72 0 123 -35.5t51 -95.5q0 -82 -3 -238.5t-3 -262.5q0 -57 2 -97.5t12.5 -84.5t27.5 -70.5t50 -44t80 -17.5q90 0 148.5 73t79 163t20.5 190q0 199 -10 318q-6 61 -15.5 107t-15.5 63l-4 14q63 18 100 18q76 0 126 -35.5t50 -97.5 q0 -92 -8 -292.5t-8 -321.5q0 -213 102 -213l78 29l8 -7q-2 -6 -6 -14t-22.5 -29.5t-42 -39t-65.5 -30.5t-91 -13q-68 0 -117 35.5t-49 109.5l2 18l-10 2q-4 -6 -10.5 -18t-33 -43t-60 -53.5t-94 -42t-130.5 -19.5q-182 0 -250.5 89t-68.5 237q0 41 2 133t2 147 q0 156 -6 254q-12 154 -41 197z" />
<glyph unicode="v" horiz-adv-x="1038" d="M2 1014v10q82 16 154 16q139 0 161 -86q74 -299 267 -786h10q53 156 96 297t63 224l38 155l26 104q8 33 25.5 57.5t38 29.5t61.5 5q29 0 52.5 -4t33.5 -8l8 -4v-10q-51 -35 -106 -189l-309 -856q-8 0 -23.5 2t-57.5 12.5t-76 27t-70 52t-50 84.5q-166 541 -260 744 q-43 90 -82 123z" />
<glyph unicode="w" horiz-adv-x="1632" d="M2 1014v10q82 16 154 16q55 0 102 -25.5t59 -70.5q68 -279 267 -778h10q94 209 129 320.5t35 195.5q0 123 -107 340q37 18 119 18q57 0 104.5 -25.5t57.5 -70.5q33 -145 106.5 -381.5t139.5 -396.5h10v2q53 156 96 297t63 224l37 155l27 104q8 33 25.5 57.5t38 29.5 t61.5 5q29 0 52.5 -4t33.5 -8l8 -4v-10q-51 -31 -106 -185l-310 -860q-8 0 -23 2t-57 12.5t-76 27t-70 52t-50 84.5l-100 332h-11q-20 -78 -147 -354l-72 -156q-8 0 -22.5 2t-54 12.5t-72.5 27t-67 52t-48 84.5q-166 541 -260 744q-43 90 -82 123z" />
<glyph unicode="x" horiz-adv-x="1036" d="M37 0v10q80 41 373 473q-4 6 -43 79l-56 104q-16 31 -57 98t-67.5 105t-61.5 80t-64 63v10q66 18 154 18q39 0 71.5 -12t53 -26.5t50.5 -58.5t45.5 -70.5t54 -103.5t63.5 -120q96 152 176 299q20 37 34.5 53.5t44.5 27.5t81 11q33 0 57.5 -5t32.5 -11l8 -4v-10 q-59 -29 -167.5 -168.5t-209.5 -292.5q0 -2 4 -6q233 -414 365 -529l6 -4v-10q-80 -20 -121 -20q-123 0 -183 64.5t-212 336.5l-66 -116l-53 -95q-18 -33 -41.5 -71t-37 -55t-32 -34.5t-36 -22.5t-37.5 -5q-84 0 -129 18z" />
<glyph unicode="y" horiz-adv-x="1038" d="M4 1014v10q82 16 154 16q135 0 157 -86q31 -127 115 -372.5t156 -425.5q49 141 89 270t61.5 211l39 154.5l27.5 111.5t20.5 71t25.5 44t35.5 17t55.5 5q29 0 52.5 -4t31.5 -8l10 -4v-10q-53 -35 -106 -189l-303 -856q-80 -223 -198 -331.5t-251 -108.5q-31 0 -52.5 3 t-34.5 16.5t-21.5 20.5t-12.5 32.5t-6 35t-3 47t-1 50.5q92 -20 158 -21q199 0 289 205l32 76q-145 35 -180 153q-166 537 -258 744q-43 90 -82 123z" />
<glyph unicode="z" horiz-adv-x="972" d="M72 37q0 51 22 84q94 135 266 405.5t228 380.5l-4 8q-111 -20 -418 -20q-29 0 -47.5 11.5t-27.5 38t-12 45t-7 59.5q104 -25 426 -25h376v-25q0 -59 -30 -104q-115 -166 -496 -776l4 -8q92 29 410 28q102 0 125.5 -28.5t36.5 -126.5q-127 16 -465 16h-385q-2 21 -2 37z " />
<glyph unicode="{" horiz-adv-x="727" d="M70 537v45q45 0 76.5 41t54 170t22.5 348q0 166 99.5 257t216.5 91q33 0 65.5 -11.5t48.5 -23.5l17 -12l-6 -10q-121 -2 -191 -81t-70 -229q0 -147 -18 -260.5t-44 -171t-51.5 -92.5t-43.5 -43l-19 -8v-10q6 0 18.5 -4.5t43 -41t53.5 -98t42 -196t19 -314.5 q0 -57 2.5 -94t14.5 -82t33.5 -70.5t61.5 -44t97 -18.5l52 4l6 -10q-59 -70 -191 -70q-121 0 -196 92q-59 76 -60 199q0 231 -12 385t-35.5 227.5t-47 100.5t-58.5 35z" />
<glyph unicode="|" horiz-adv-x="536" d="M188 -293q0 174 5.5 795.5t5.5 707.5q0 166 -11 224q47 8 88 8t55.5 -12.5t14.5 -45.5q0 -174 -5 -795.5t-5 -707.5q0 -166 10 -223q-33 -6 -70 -6q-88 0 -88 55z" />
<glyph unicode="}" horiz-adv-x="727" d="M57 -432l6 10q25 -4 52 -4q57 0 97 18.5t61.5 44t33.5 70.5t14.5 82t2.5 94q0 518 137 633q23 18 39 21v10q-6 2 -18.5 8t-43 43t-53.5 92t-42 170t-19 262q0 139 -64 219q-66 86 -197 91l-6 10q76 47 150 47q119 0 199 -80q98 -98 98 -268q0 -219 22.5 -348t54 -170 t76.5 -41v-45q-35 -8 -58.5 -35t-47 -100.5t-35.5 -227.5t-12 -385q0 -133 -81 -212t-185 -79q-122 0 -181 70z" />
<glyph unicode="~" horiz-adv-x="1128" d="M113 455q16 113 83.5 181.5t165.5 68.5q94 0 231.5 -48.5t209.5 -48.5q98 0 209 101l8 -7q-16 -113 -84 -181t-166 -68q-96 0 -233.5 48t-206.5 48q-98 0 -209 -100z" />
<glyph unicode="&#xa1;" horiz-adv-x="548" d="M115 33q0 139 58 441t58 456q0 92 -36 143q53 8 65 8q94 0 94 -137q0 -53 -1 -193.5t-1 -220.5q0 -205 32 -373.5t77 -222.5v-10q-70 -18 -123 -18q-82 0 -152.5 36t-70.5 91zM141 1339q0 51 38 88t89 37t88 -36.5t37 -88t-37 -89.5t-88 -38t-89 37t-38 90z" />
<glyph unicode="&#xa2;" horiz-adv-x="1091" d="M96 582q0 213 125 371.5t328 193.5q0 160 -8 215q33 6 69 6q47 0 47 -47q0 -2 -1 -59.5t-1 -104.5q100 -2 214 -39t114 -106q0 -68 -72 -148h-10l-11 18q-7 11 -31.5 40.5t-51.5 54t-69 48.5t-83 32v-834h21q145 0 323 135l9 9l8 -9l-10.5 -27.5t-35 -62.5t-65.5 -80.5 t-103.5 -69.5t-146.5 -44q0 -160 9 -215q-33 -6 -70 -6q-47 0 -47 47l2 61v113q-193 16 -323 160.5t-130 347.5zM334 659q0 -143 57.5 -253.5t157.5 -155.5v803q-109 -27 -162 -142t-53 -252z" />
<glyph unicode="&#xa3;" horiz-adv-x="1155" d="M102 47q0 10 58 90q57 76 84 250l6 41l14 117q-51 0 -153 -4q-6 18 -7 49q0 76 41 76q53 -2 131 -4q0 10 6.5 74.5t8.5 103.5q29 410 391 409q133 0 215 -66.5t82 -170.5l-10 -6q-29 53 -94.5 79.5t-139.5 26.5q-188 0 -213 -254l-11 -116q-7 -75 -7 -85h219q121 0 170 9 q0 -14 -7 -40t-35 -55.5t-73 -29.5q-94 0 -286 4q-31 -248 -142 -416l4 -8q111 18 336 18h123q150 0 217 82h10q12 -84 13 -106q0 -78 -53.5 -106.5t-149.5 -28.5q-74 0 -231.5 17t-210.5 17l-273 -34q-33 47 -33 67z" />
<glyph unicode="&#xa5;" horiz-adv-x="1220" d="M57 1210v11q57 16 156 16q68 0 103.5 -13.5t47 -28.5t37.5 -65q143 -276 248 -428l118 204l90 157q28 47 61.5 95t59.5 63.5t58.5 15.5t64.5 -4t46 -8l16 -4v-11q-70 -55 -129 -133q-61 -82 -200 -291q119 4 172 11q8 -33 8 -84q0 -43 -29 -43q-98 2 -223 4l-49 -84v-68 h28q193 0 265 10q8 -33 8 -83q0 -43 -29 -43q-123 4 -272 6q4 -225 28 -414q-102 -18 -123 -18q-125 0 -124 120v314h-11q-227 0 -278 -8q-6 16 -6 47q0 80 47 79q111 -4 248 -8v64q-41 51 -66 90q-166 0 -223 -8q-6 16 -6 47q0 80 47 80q45 -2 106 -4l-194 303 q-18 27 -43 55.5t-41 44.5z" />
<glyph unicode="&#xa6;" horiz-adv-x="559" d="M199 -291q0 66 5 271.5t5 238.5q0 166 -10 223q47 8 88 8.5t55 -12t14 -45.5q0 -66 -5 -271.5t-5 -238.5q0 -166 10 -223q-33 -6 -69 -6q-88 0 -88 55zM199 700q0 66 5 272t5 238q0 166 -10 224q47 8 88 8t55 -12.5t14 -45.5q0 -66 -5 -271.5t-5 -238.5q0 -166 10 -223 q-33 -6 -69 -6q-88 0 -88 55z" />
<glyph unicode="&#xa7;" horiz-adv-x="841" d="M57 -213l11 4q113 -106 266 -106h12q6 31 6 135q0 250 -147 776q-57 201 -81 313.5t-24 227.5q0 184 99.5 304t292.5 120q104 0 189 -53.5t85 -157.5l-10 -4q-113 106 -267 106h-12q-6 -23 -6 -135q0 -250 147 -776q57 -201 81 -313.5t24 -227.5q0 -184 -99.5 -304 t-291.5 -120q-104 0 -189.5 53.5t-85.5 157.5zM223 1139q0 -37 3 -73t7.5 -62.5t17.5 -83.5l20 -86l32 -124l37 -147q41 -162 59.5 -241.5t37 -194.5t18.5 -203q0 -133 -31 -225q88 29 132 109.5t44 189.5q0 37 -3 72.5t-7 62.5t-18 84l-20 86l-32 124l-37 146 q-41 162 -59 242t-36.5 194.5t-18.5 202.5q0 131 28 226q-88 -27 -131 -108.5t-43 -190.5z" />
<glyph unicode="&#xa8;" horiz-adv-x="819" d="M90 1370q0 49 36 85t85 36t85 -36t36 -85t-36 -85t-85 -36t-85 36t-36 85zM485 1370q0 49 36 85t83 36q51 0 87 -36t36 -85t-36 -85t-87 -36q-47 0 -83 36t-36 85z" />
<glyph unicode="&#xa9;" horiz-adv-x="1714" d="M100 682q0 348 221.5 564t581.5 216q311 0 512 -203.5t201 -510.5q0 -348 -221 -564.5t-582 -216.5q-311 0 -512 204t-201 511zM260 709q0 -266 173 -444.5t429 -178.5q246 0 420 181.5t174 453.5q0 266 -172 444t-426 178q-248 0 -423 -180t-175 -454zM489 692 q0 172 118 295t292 123q76 0 151.5 -33t75.5 -84q0 -66 -71 -121l-11 7q-10 66 -60 98.5t-99 32.5q-98 0 -159.5 -83t-61.5 -179q0 -139 74.5 -213t181.5 -74q154 0 239 108l10 -6q-29 -115 -116.5 -174t-198.5 -59q-145 0 -255 97t-110 265z" />
<glyph unicode="&#xaa;" horiz-adv-x="790" d="M78 930q0 70 36 121t95 77.5t119.5 40t124.5 13.5v12q0 88 -28 130t-99 42q-86 0 -181 -80l-8 6q16 61 88 111.5t156 50.5q139 0 186 -62.5t47 -170.5q0 -35 -1 -114t-1 -116v-16q0 -145 64 -146q12 0 24.5 5.5t18.5 9.5l6 4l8 -6q-4 -8 -13 -22.5t-50 -37t-97 -22.5 q-119 0 -120 94l-4 2q-59 -102 -181 -102q-90 0 -140 51t-50 125zM240 954q0 -96 90 -96q57 0 116 53q0 25 3.5 100.5t3.5 112.5q-125 -23 -170 -65q-43 -39 -43 -105z" />
<glyph unicode="&#xab;" horiz-adv-x="1181" d="M96 547l2 20q55 18 131 55t189.5 118t175.5 169h12q10 -31 10 -67q0 -72 -78.5 -168t-162.5 -137v-11q82 -39 161.5 -137t79.5 -170l-10 -67h-12q-57 92 -148.5 158.5t-165 95t-129 64.5t-55.5 77zM578 530l2 52q37 14 82 36.5t117.5 64.5t141 101.5t113.5 124.5h13 q10 -31 10 -67q0 -72 -79 -168t-163 -137v-11q82 -39 162 -137t80 -170l-10 -67h-13q-51 88 -135 152.5t-151.5 92t-118.5 61t-51 72.5z" />
<glyph unicode="&#xac;" horiz-adv-x="1712" d="M63 618v3q41 80 193 124q51 16 115 17q68 0 100 -25l-2 -12q-43 -14 -86 -36.5t-81 -52.5t-60.5 -50.5l-50.5 -47.5l-29 -30q-35 12 -62 39q-37 42 -37 71zM317 1235q0 63 52 108h6q92 0 198 -102q102 -102 103 -184v-10l-12 -3q-33 31 -75 56.5t-85 43t-74 28 t-66.5 19.5t-39.5 11q-7 25 -7 33zM385 498v16q49 12 131 61q82 41 141 101q-90 53 -158.5 142t-68.5 179v7l12 8q20 -23 117 -86q92 -51 160 -72q2 106 46 213t126 150l8 -7q-10 -55 -10 -143q0 -78 12 -172q170 72 260 72q78 0 144 -41v-11q-76 -27 -129 -61 q-78 -41 -142 -104q92 -61 160 -146.5t68 -177.5v-4l-15 -4q-59 55 -117 80q-70 41 -155 71q-6 -115 -50 -217t-124 -145l-10 10q12 53 12 145q0 104 -15 164q-127 -63 -260 -63q-80 0 -143 35zM508 104q0 59 18 119q37 145 115 183l6 -7q-10 -57 -10 -110q0 -41 6 -88 t13 -76l17 -63q9 -34 11 -37q-37 -41 -104 -41q-23 0 -45 6q-27 42 -27 114zM999 1409q43 39 105 39q29 0 45 -4q29 -51 29 -117q0 -57 -19 -117q-37 -145 -115 -182l-8 6q10 47 11 111q-1 149 -48 264zM1012 377v10l10 2q35 -31 77 -56.5t84 -43t73.5 -27.5t67.5 -19.5 t40 -11.5q4 -16 4 -30q0 -66 -49 -111h-8q-90 0 -201 103q-98 102 -98 184zM1214 698l3 11q31 10 62.5 25.5t60 33.5t51 35.5t46.5 39.5l37 34q13 12 30 30l20 21q39 -16 63 -41q33 -41 35 -74q-35 -63 -128 -102t-181 -39q-64 -1 -99 26z" />
<glyph unicode="&#xad;" horiz-adv-x="1032" d="M150 565q0 88 47 88q129 -10 274 -10h180q166 0 223 10q8 -41 9 -92q0 -66 -29 -65q-125 6 -272 8h-189q-180 0 -237 -8q-6 32 -6 69z" />
<glyph unicode="&#xae;" horiz-adv-x="1132" d="M72 1067q0 227 146.5 368.5t383.5 141.5q201 0 330 -133t129 -334q0 -225 -142.5 -367.5t-377.5 -142.5q-205 0 -337 134t-132 333zM178 1083q0 -172 114 -286.5t286 -114.5q156 0 269.5 118t113.5 294q0 178 -109 290.5t-281 112.5q-164 0 -278.5 -117t-114.5 -297z M371 836q14 25 14 215q0 143 -4 241l-10 86q41 -2 71 -2h97q96 0 147 -40t51 -101q0 -51 -29.5 -95t-74.5 -46l-2 -7q20 -8 51 -59q61 -100 90 -135t53 -43v-10q-37 -12 -84 -13q-45 0 -75.5 33t-46 74t-48 85t-79.5 62v-30q0 -20 2 -74.5t2 -93.5q0 -55 -60 -56 q-10 0 -32.5 4.5t-32.5 4.5zM492 1124q29 -6 55 -6q94 0 94 101q0 109 -133 108h-14q-2 -64 -2 -203z" />
<glyph unicode="&#xaf;" horiz-adv-x="819" d="M74 1325q0 88 47 88q193 -10 393 -10q166 0 223 10q8 -41 8 -92q0 -66 -28 -66q-193 8 -400 9q-180 0 -237 -9q-6 33 -6 70z" />
<glyph unicode="&#xb0;" horiz-adv-x="763" d="M68 1126q0 125 93 216.5t218 91.5q127 0 222 -91.5t95 -216.5t-95 -216t-222 -91q-125 0 -218 91t-93 216zM197 1130q0 -74 54 -136t130 -62q84 0 135 61.5t51 136.5q0 74 -57 129.5t-129 55.5q-76 0 -130 -54.5t-54 -130.5z" />
<glyph unicode="&#xb1;" horiz-adv-x="905" d="M80 -109q0 88 47 89q254 -10 455 -11q166 0 223 11q8 -41 8 -93q0 -66 -29 -65q-254 8 -460 8q-180 0 -238 -8q-6 32 -6 69zM86 596q0 88 47 88q117 -6 250 -8v63q0 166 -10 224q41 8 92 8q66 0 65 -29q-6 -127 -8 -268h66q166 0 223 10q8 -41 8 -92q0 -66 -28 -66 q-127 4 -269 6v-51q0 -180 8 -237q-33 -6 -69 -6q-88 0 -88 47q4 117 8 250h-51q-180 0 -238 -9q-6 33 -6 70z" />
<glyph unicode="&#xb2;" horiz-adv-x="681" d="M82 911q6 51 40 97.5t78 81t86 71.5t70.5 85t28.5 102q0 102 -92 102q-102 -4 -170 -98l-8 10q6 86 67.5 137t141.5 51q100 0 155.5 -54t55.5 -128q0 -63 -36 -119.5t-75 -88.5t-106.5 -77t-92.5 -65l6 -8q61 18 254 18q72 0 89.5 -19.5t23.5 -90.5q2 -10 2 -17 q-127 10 -254 10h-108q-90 0 -148 -6z" />
<glyph unicode="&#xb3;" horiz-adv-x="606" d="M78 1047l12 10q63 -57 158 -58q61 0 95 28t34 67q0 43 -39 76.5t-109 37.5q-35 0 -34 27l6 35l73 12q41 6 67 33.5t26 58.5q0 33 -27 54.5t-80 21.5q-47 0 -88 -24.5t-57 -49.5l-19 -24l-8 10q4 90 68.5 139t150.5 49q88 0 144.5 -41t56.5 -112q0 -86 -113 -137v-11 q129 -35 129 -143q0 -94 -67.5 -149.5t-175.5 -55.5q-70 0 -126.5 37t-76.5 109z" />
<glyph unicode="&#xb4;" horiz-adv-x="819" d="M188 1178v10q172 96 283 346q49 0 88 -24.5t55 -49.5l15 -24q-25 -98 -153 -182.5t-224 -84.5q-46 1 -64 9z" />
<glyph unicode="&#xb5;" horiz-adv-x="1669" d="M78 702q0 319 215 539.5t547 220.5q319 0 536 -214t217 -521q0 -319 -215 -539.5t-547 -220.5q-319 0 -536 214t-217 521zM203 709q0 -139 53 -263q2 63 71.5 145.5t139.5 115.5v12q-68 31 -135.5 112.5t-75.5 145.5q-53 -123 -53 -268zM285 397q104 6 202.5 60.5 t166 103.5t102.5 49q23 0 32 -8l15 -12q-16 -82 -17 -199q0 -182 52 -309q47 106 47 237q0 45 -6.5 114t-6.5 93q0 70 35 88l21 11q61 -57 194 -133t262 -93q-51 74 -129.5 129.5t-141 80t-109 55t-46.5 65.5l3 21q78 25 211 101.5t214 178.5q-82 -4 -162.5 -39t-131 -72.5 t-99.5 -69.5t-78 -32q-14 0 -30 10l-17 11q16 92 17 200q0 180 -49 312q-51 -104 -52 -240q0 -45 7.5 -115.5t7.5 -93.5q0 -68 -35 -88l-19 -6q-250 199 -460 223q51 -74 131 -129t142.5 -79.5t108.5 -55.5t46 -68l-2 -16q-82 -29 -214 -106t-212 -179zM311 346 q78 -115 200 -185.5t269 -82.5q-51 31 -88 121t-37 172q0 2 1 10t1 12l-8 6q-92 -70 -243 -69q-52 0 -95 16zM315 1083q39 16 91 17q135 0 241 -70l8 4q-2 14 -2 21q0 78 39 170t88 127q-141 -12 -263 -83t-202 -186zM889 78q141 10 263 79.5t202 184.5q-37 -12 -86 -12 q-143 0 -242 69l-10 -4v-24q0 -78 -38 -171t-89 -122zM891 1352q51 -35 88 -125t37 -170v-21l6 -6q102 70 244 70q59 0 94 -21q-78 117 -200 189t-269 84zM1204 709q68 -29 135.5 -111t73.5 -145q55 127 55 268q0 133 -53 260q-4 -61 -72.5 -144t-138.5 -116v-12z" />
<glyph unicode="&#x3bc;" horiz-adv-x="1669" d="M78 702q0 319 215 539.5t547 220.5q319 0 536 -214t217 -521q0 -319 -215 -539.5t-547 -220.5q-319 0 -536 214t-217 521zM203 709q0 -139 53 -263q2 63 71.5 145.5t139.5 115.5v12q-68 31 -135.5 112.5t-75.5 145.5q-53 -123 -53 -268zM285 397q104 6 202.5 60.5 t166 103.5t102.5 49q23 0 32 -8l15 -12q-16 -82 -17 -199q0 -182 52 -309q47 106 47 237q0 45 -6.5 114t-6.5 93q0 70 35 88l21 11q61 -57 194 -133t262 -93q-51 74 -129.5 129.5t-141 80t-109 55t-46.5 65.5l3 21q78 25 211 101.5t214 178.5q-82 -4 -162.5 -39t-131 -72.5 t-99.5 -69.5t-78 -32q-14 0 -30 10l-17 11q16 92 17 200q0 180 -49 312q-51 -104 -52 -240q0 -45 7.5 -115.5t7.5 -93.5q0 -68 -35 -88l-19 -6q-250 199 -460 223q51 -74 131 -129t142.5 -79.5t108.5 -55.5t46 -68l-2 -16q-82 -29 -214 -106t-212 -179zM311 346 q78 -115 200 -185.5t269 -82.5q-51 31 -88 121t-37 172q0 2 1 10t1 12l-8 6q-92 -70 -243 -69q-52 0 -95 16zM315 1083q39 16 91 17q135 0 241 -70l8 4q-2 14 -2 21q0 78 39 170t88 127q-141 -12 -263 -83t-202 -186zM889 78q141 10 263 79.5t202 184.5q-37 -12 -86 -12 q-143 0 -242 69l-10 -4v-24q0 -78 -38 -171t-89 -122zM891 1352q51 -35 88 -125t37 -170v-21l6 -6q102 70 244 70q59 0 94 -21q-78 117 -200 189t-269 84zM1204 709q68 -29 135.5 -111t73.5 -145q55 127 55 268q0 133 -53 260q-4 -61 -72.5 -144t-138.5 -116v-12z" />
<glyph unicode="&#xb6;" horiz-adv-x="1308" d="M86 874q0 231 165 395.5t398 164.5h371q213 0 235 16q-12 -76 -35.5 -100.5t-111.5 -32.5q-10 -809 -10 -850q0 -111 2 -327t6 -386l2 -168h-127q8 1036 8 1166q0 338 -10 559h-131q-10 -389 -10 -844q0 -111 2 -327t4 -386l4 -168h-131q2 250 2 647l2 84l-6 9 q-53 -23 -119 -23q-213 0 -361.5 175t-148.5 396z" />
<glyph unicode="&#xb7;" horiz-adv-x="501" d="M113 578q0 57 41 98t96 41q57 0 98 -41t41 -98q0 -55 -41 -96.5t-98 -41.5q-55 0 -96 41.5t-41 96.5z" />
<glyph unicode="&#xb8;" horiz-adv-x="819" d="M213 -369q0 23 8 45l8 5q31 -47 138 -48q51 0 75.5 24t24.5 48q0 27 -26.5 42t-57.5 21.5t-57.5 25t-26.5 50.5q0 31 22.5 70t43.5 61l22 25q10 8 29 8q25 0 35 -8q-45 -63 -45 -100q0 -18 30.5 -28.5t68.5 -17t68.5 -37t30.5 -85.5q0 -88 -62.5 -146.5t-168.5 -58.5 q-74 0 -117 27.5t-43 76.5z" />
<glyph unicode="&#xb9;" horiz-adv-x="550" d="M72 938q0 16 14 24.5t48 13.5t46 9l21 6q10 143 10 250q0 166 -12 195q-18 37 -88 41q-31 2 -35 12q-2 6 -2 20l4 31h354q47 0 47 -37v-28q-96 0 -118.5 -25t-22.5 -129q0 -307 2 -328l25 -6l30 -6q20 -4 31.5 -7t25 -7t19.5 -11.5t6 -17.5l-2 -27h-399q-4 19 -4 27z" />
<glyph unicode="&#xba;" horiz-adv-x="827" d="M74 1100q0 160 112.5 257t257.5 97q131 0 222.5 -83t91.5 -241q0 -168 -114 -268t-259 -100q-131 0 -221 86t-90 252zM250 1122q0 -131 52 -208.5t122 -77.5q63 0 109.5 65.5t46.5 188.5q0 135 -53.5 217t-123.5 82q-63 0 -108 -69t-45 -198z" />
<glyph unicode="&#xbb;" horiz-adv-x="1183" d="M129 219q0 72 80 170t162 137v11q-84 41 -163 137t-79 168l10 67h13q45 -66 113.5 -125t141 -101t117.5 -64.5t82 -36.5q2 -31 2 -52q0 -39 -51 -72.5t-118.5 -61t-151.5 -92t-135 -152.5h-13q-10 28 -10 67zM569 219q0 72 80 170t162 137v11q-84 41 -163 137t-79 168 l11 67h12q61 -88 175 -169t189.5 -117.5t130.5 -55.5q2 -12 3 -20q0 -41 -55.5 -77t-129.5 -64.5t-165 -95t-148 -158.5h-12q-11 28 -11 67z" />
<glyph unicode="&#xbc;" horiz-adv-x="933" d="M109 778q0 57 47 58q129 -10 274 -11h180q166 0 224 11q8 -29 8 -62q0 -66 -29 -65q-125 8 -272 8h-189q-195 0 -237 -8q-6 32 -6 69zM176 221l275 408q43 14 67 14q35 0 58.5 -21.5t23.5 -56.5q0 -186 -2 -286q72 0 111 10v-49q0 -37 -15.5 -54.5t-34 -20.5t-61.5 -3 v-15q0 -14 1 -39.5t1 -39.5q0 -49 -15.5 -65.5t-47.5 -16.5q-25 0 -86 6q14 49 16 176h-217q-25 0 -43.5 13.5t-24.5 27.5zM283 948q0 16 14 24.5t48 13.5t46 9l21 6q10 143 10 250q0 166 -12 195q-18 37 -88 41q-31 2 -35 12q-2 6 -2 21l4 30h354q47 0 47 -37v-28 q-96 0 -118.5 -24.5t-22.5 -129.5q0 -307 2 -327l24 -7l31 -6q20 -4 31.5 -7t25 -7t19.5 -11.5t6 -17.5l-2 -26h-399q-4 18 -4 26zM311 285l6 -9q43 4 150 5q0 164 4 227l-10 4z" />
<glyph unicode="&#xbd;" horiz-adv-x="937" d="M102 784q0 57 48 58q129 -10 274 -11h180q166 0 223 11q8 -29 9 -62q0 -66 -29 -65q-125 8 -272 8h-189q-195 0 -237 -8q-7 32 -7 69zM219 0q6 51 40 97t78 81t86 72t70.5 85t28.5 101q0 102 -92 103q-102 -4 -170 -99l-8 11q6 86 67.5 137t141.5 51q100 0 155.5 -54.5 t55.5 -127.5q0 -63 -36 -119.5t-75 -88.5t-106.5 -77t-92.5 -66l7 -8q61 18 254 19q72 0 89 -19.5t23 -91.5q2 -10 2 -16q-127 10 -254 10h-108q-90 0 -148 -6zM276 948q0 16 14.5 24.5t48.5 13.5t46 9l21 6q10 143 10 250q0 166 -13 195q-18 37 -88 41q-31 2 -34 12 q-2 6 -2 21l4 30h354q47 0 47 -37v-28q-96 0 -118.5 -24.5t-22.5 -129.5q0 -307 2 -327l24 -7l31 -6q20 -4 31.5 -7t25 -7t19.5 -11.5t6 -17.5l-2 -26h-399q-5 18 -5 26z" />
<glyph unicode="&#xbe;" horiz-adv-x="901" d="M94 778q0 57 47 58q129 -10 275 -11q346 0 403 11q8 -29 8 -62q0 -66 -28 -65q-125 8 -273 8q-383 0 -426 -8q-6 32 -6 69zM164 221l274 408q43 14 68 14q35 0 58.5 -21.5t23.5 -56.5q0 -186 -2 -286q72 0 110 10v-49q0 -37 -15 -54.5t-33.5 -20.5t-61.5 -3v-15 q0 -14 1 -39.5t1 -39.5q0 -49 -15.5 -65.5t-48.5 -16.5q-25 0 -86 6q14 49 17 176h-217q-25 0 -43.5 13.5t-24.5 27.5zM238 1047l12 10q63 -57 158 -58q61 0 95 28t34 67q0 43 -39 76.5t-109 37.5q-35 0 -35 27l6 35l74 12q41 6 66.5 33.5t25.5 58.5q0 33 -26.5 54.5 t-79.5 21.5q-47 0 -88 -24.5t-58 -49.5l-18 -24l-8 10q4 90 68.5 139t150.5 49q88 0 144.5 -41t56.5 -112q0 -86 -113 -137v-11q129 -35 129 -143q0 -94 -67.5 -149.5t-176.5 -55.5q-70 0 -126 37t-76 109zM299 285l6 -9q43 4 150 5q0 164 4 227l-10 4z" />
<glyph unicode="&#xbf;" horiz-adv-x="790" d="M74 338q0 72 45 137.5t108 117.5l128 103q65 51 110 117t45 137.5t-37 122.5q53 8 66 8q94 0 94 -137q0 -76 -34 -144.5t-82 -118.5t-96 -95t-82 -91t-34 -87q0 -53 60.5 -83t133 -45.5t133 -70.5t60.5 -154q0 -35 -30 -170h-11q-25 78 -211 138q-366 114 -366 315z M420 1339q0 51 38 88t89 37t88 -36.5t37 -88t-37 -89.5t-88 -38t-89 37t-38 90z" />
<glyph unicode="&#xc0;" d="M16 0v10q57 43 134 256l428 1194q8 0 22 -2t54 -16.5t75 -38t72 -73.5t57 -118q72 -233 182.5 -557.5t180.5 -478.5q45 -100 60 -129t34 -37v-10q-78 -20 -150 -20q-154 0 -188 122q-61 213 -115 375q-127 4 -205 4q-123 0 -295 -8q-23 -68 -45 -144l-34 -118 q-12 -41 -28.5 -87t-29 -68.5t-33 -42t-44 -26.5t-58.5 -7q-16 0 -34.5 5t-28.5 11zM395 586q131 -4 219 -4q76 0 211 4q-143 424 -219 616h-10zM420 1790l16 27q10 16 51 43.5t91 27.5q111 -250 282 -346v-10q-18 -8 -63 -8q-96 0 -224 84t-153 182z" />
<glyph unicode="&#xc1;" d="M16 0v10q57 43 134 256l428 1194q8 0 22 -2t54 -16.5t75 -38t72 -73.5t57 -118q72 -233 182.5 -557.5t180.5 -478.5q45 -100 60 -129t34 -37v-10q-78 -20 -150 -20q-154 0 -188 122q-61 213 -115 375q-127 4 -205 4q-123 0 -295 -8q-23 -68 -45 -144l-34 -118 q-12 -41 -28.5 -87t-29 -68.5t-33 -42t-44 -26.5t-58.5 -7q-16 0 -34.5 5t-28.5 11zM395 586q131 -4 219 -4q76 0 211 4q-143 424 -219 616h-10zM420 1532v10q172 96 282 346q31 0 58.5 -10t45 -24.5t31 -29t19.5 -24.5l4 -10q-25 -98 -152.5 -182t-224.5 -84q-45 0 -63 8z " />
<glyph unicode="&#xc2;" d="M16 0v10q57 43 134 256l428 1194q8 0 22 -2t54 -16.5t75 -38t72 -73.5t57 -118q72 -233 182.5 -557.5t180.5 -478.5q45 -100 60 -129t34 -37v-10q-78 -20 -150 -20q-154 0 -188 122q-61 213 -115 375q-127 4 -205 4q-123 0 -295 -8q-23 -68 -45 -144l-34 -118 q-12 -41 -28.5 -87t-29 -68.5t-33 -42t-44 -26.5t-58.5 -7q-16 0 -34.5 5t-28.5 11zM276 1532v10q82 47 154 126t101.5 129t48.5 91q25 6 45 6q49 0 86 -38.5t61.5 -91t81.5 -117t139 -105.5v-10q-18 -8 -63 -8q-68 0 -161 59t-130 119h-10q-37 -59 -129 -118.5t-160 -59.5 q-46 0 -64 8zM395 586q131 -4 219 -4q76 0 211 4q-143 424 -219 616h-10z" />
<glyph unicode="&#xc3;" d="M16 0v10q57 43 134 256l428 1194q8 0 22 -2t54 -16.5t75 -38t72 -73.5t57 -118q72 -233 182.5 -557.5t180.5 -478.5q45 -100 60 -129t34 -37v-10q-78 -20 -150 -20q-154 0 -188 122q-61 213 -115 375q-127 4 -205 4q-123 0 -295 -8q-23 -68 -45 -144l-34 -118 q-12 -41 -28.5 -87t-29 -68.5t-33 -42t-44 -26.5t-58.5 -7q-16 0 -34.5 5t-28.5 11zM270 1612q16 88 80 140t162 52q76 0 185.5 -48t162.5 -48q68 0 148 70q-16 -88 -80 -141.5t-162 -53.5q-78 0 -187.5 49t-160.5 49q-68 1 -148 -69zM395 586q131 -4 219 -4q76 0 211 4 q-143 424 -219 616h-10z" />
<glyph unicode="&#xc4;" d="M16 0v10q57 43 134 256l428 1194q8 0 22 -2t54 -16.5t75 -38t72 -73.5t57 -118q72 -233 182.5 -557.5t180.5 -478.5q45 -100 60 -129t34 -37v-10q-78 -20 -150 -20q-154 0 -188 122q-61 213 -115 375q-127 4 -205 4q-123 0 -295 -8q-23 -68 -45 -144l-34 -118 q-12 -41 -28.5 -87t-29 -68.5t-33 -42t-44 -26.5t-58.5 -7q-16 0 -34.5 5t-28.5 11zM322 1724.5q0 49.5 35.5 85t85 35.5t85 -35.5t35.5 -85t-35.5 -85t-85 -35.5t-85 35.5t-35.5 85zM395 586q131 -4 219 -4q76 0 211 4q-143 424 -219 616h-10zM717 1724.5q0 49.5 35.5 85 t83.5 35.5q51 0 86.5 -35.5t35.5 -85t-35.5 -85t-86.5 -35.5q-47 0 -83 35.5t-36 85z" />
<glyph unicode="&#xc5;" d="M16 0v10q57 43 134 256l428 1194q8 0 22 -2t54 -16.5t75 -38t72 -73.5t57 -118q72 -233 182.5 -557.5t180.5 -478.5q45 -100 60 -129t34 -37v-10q-78 -20 -150 -20q-154 0 -188 122q-61 213 -115 375q-127 4 -205 4q-123 0 -295 -8q-23 -68 -45 -144l-34 -118 q-12 -41 -28.5 -87t-29 -68.5t-33 -42t-44 -26.5t-58.5 -7q-16 0 -34.5 5t-28.5 11zM395 586q131 -4 219 -4q76 0 211 4q-143 424 -219 616h-10zM457 1710q0 74 54 127t128 53t130 -53t56 -127t-56 -127t-130 -53t-128 53t-54 127zM532 1712q0 -43 32 -80t77 -37q49 0 79 36 t30 81q0 43 -33 76t-76 33q-45 0 -77 -32t-32 -77z" />
<glyph unicode="&#xc6;" horiz-adv-x="1783" d="M0 0q18 16 38 41l32 41q12 16 31 54l25 48q5 10 27.5 58.5t24.5 52.5l527 1155q123 -16 215 -16h237l453 20q-6 -49 -11.5 -70.5t-20.5 -50t-48 -39t-86 -10.5q-109 0 -206 8t-140 17l-43 8q0 -98 -4 -504h315q37 0 67.5 5t41.5 9l12 7q-4 -82 -26.5 -117t-96.5 -35 l-315 12v-213q0 -61 4 -179t4 -167l375 10q199 6 274 45q2 -23 2 -57q0 -94 -38 -118.5t-157 -24.5l-722 10q20 55 22 479h-27q-229 0 -376 -6l-84 -213q-76 -184 -118 -232t-132 -48zM453 586q66 -2 239 -2h121q-8 532 -12 635l-6 104l-15 4l-166 -372q-124 -277 -161 -369 z" />
<glyph unicode="&#xc7;" horiz-adv-x="1439" d="M115 668q0 205 86 384t259 295.5t396 116.5q158 0 308.5 -55t150.5 -139q0 -33 -25.5 -82t-56.5 -82h-12q-76 119 -187.5 181.5t-228.5 62.5q-184 0 -311 -151.5t-127 -432.5q0 -162 54 -298t173 -227t280 -91q266 0 467 167l7 -6q-29 -141 -180.5 -241.5t-346.5 -100.5 q-10 0 -27.5 1t-25.5 1q-27 -39 -27 -71q0 -18 31 -28.5t69 -17t68.5 -37t30.5 -85.5q0 -88 -62.5 -146.5t-168.5 -58.5q-74 0 -117 27.5t-43 76.5q0 23 8 45l8 5q31 -47 137 -48q51 0 76 24t25 48q0 27 -26.5 42t-57.5 21.5t-57.5 25t-26.5 50.5q0 51 65 133 q-285 37 -435 233t-150 458z" />
<glyph unicode="&#xc8;" horiz-adv-x="1191" d="M188 1434h377l453 20q-6 -49 -11.5 -70.5t-20.5 -50t-48 -39t-86 -10.5q-109 0 -206 8t-140 17l-43 8q0 -98 -4 -504h315q37 0 67.5 5t43.5 9l10 7q-4 -82 -26.5 -117t-96.5 -35l-315 12v-213q0 -61 4 -179t4 -167l375 10q199 6 274 45q2 -23 2 -57q0 -94 -38 -118.5 t-156 -24.5l-723 10q23 57 22 567q0 356 -12 652q-11 199 -21 215zM410 1790l16 27q10 16 51 43.5t90 27.5q111 -250 283 -346v-10q-18 -8 -64 -8q-96 0 -223.5 84t-152.5 182z" />
<glyph unicode="&#xc9;" horiz-adv-x="1191" d="M188 1434h377l453 20q-6 -49 -11.5 -70.5t-20.5 -50t-48 -39t-86 -10.5q-109 0 -206 8t-140 17l-43 8q0 -98 -4 -504h315q37 0 67.5 5t43.5 9l10 7q-4 -82 -26.5 -117t-96.5 -35l-315 12v-213q0 -61 4 -179t4 -167l375 10q199 6 274 45q2 -23 2 -57q0 -94 -38 -118.5 t-156 -24.5l-723 10q23 57 22 567q0 356 -12 652q-11 199 -21 215zM410 1532v10q172 96 282 346q49 0 88 -24.5t56 -48.5l14 -25q-25 -98 -153 -182t-224 -84q-45 0 -63 8z" />
<glyph unicode="&#xca;" horiz-adv-x="1191" d="M188 1434h377l453 20q-6 -49 -11.5 -70.5t-20.5 -50t-48 -39t-86 -10.5q-109 0 -206 8t-140 17l-43 8q0 -98 -4 -504h315q37 0 67.5 5t43.5 9l10 7q-4 -82 -26.5 -117t-96.5 -35l-315 12v-213q0 -61 4 -179t4 -167l375 10q199 6 274 45q2 -23 2 -57q0 -94 -38 -118.5 t-156 -24.5l-723 10q23 57 22 567q0 356 -12 652q-11 199 -21 215zM266 1532v10q82 47 154 126t101.5 129t47.5 91q25 6 45 6q49 0 86 -38.5t61.5 -91t82 -117t139.5 -105.5v-10q-18 -8 -63 -8q-68 0 -161 59t-130 119h-11q-37 -59 -129 -118.5t-159 -59.5q-46 0 -64 8z" />
<glyph unicode="&#xcb;" horiz-adv-x="1191" d="M188 1434h377l453 20q-6 -49 -11.5 -70.5t-20.5 -50t-48 -39t-86 -10.5q-109 0 -206 8t-140 17l-43 8q0 -98 -4 -504h315q37 0 67.5 5t43.5 9l10 7q-4 -82 -26.5 -117t-96.5 -35l-315 12v-213q0 -61 4 -179t4 -167l375 10q199 6 274 45q2 -23 2 -57q0 -94 -38 -118.5 t-156 -24.5l-723 10q23 57 22 567q0 356 -12 652q-11 199 -21 215zM311 1724.5q0 49.5 36 85t85 35.5t85 -35.5t36 -85t-36 -85t-85 -35.5t-85 35.5t-36 85zM707 1724.5q0 49.5 35.5 85t82.5 35.5q51 0 87 -35.5t36 -85t-35.5 -85t-87.5 -35.5q-47 0 -82.5 35.5t-35.5 85z " />
<glyph unicode="&#xcc;" horiz-adv-x="661" d="M100 1790l17 27q10 16 51 43.5t90 27.5q111 -250 283 -346v-10q-18 -8 -64 -8q-96 0 -224 84t-153 182zM182 1436q63 18 113 18q72 0 117 -34t45 -93q0 -90 -4 -261t-4 -257q0 -532 34 -805q-127 -20 -137 -20q-133 0 -133 139v631q0 246 -10 465q-11 199 -21 217z" />
<glyph unicode="&#xcd;" horiz-adv-x="661" d="M100 1532v10q172 96 283 346q31 0 58.5 -10t45 -24.5t30.5 -29t20 -24.5l4 -10q-25 -98 -153 -182t-224 -84q-46 0 -64 8zM182 1436q63 18 113 18q72 0 117 -34t45 -93q0 -90 -4 -261t-4 -257q0 -532 34 -805q-127 -20 -137 -20q-133 0 -133 139v631q0 246 -10 465 q-11 199 -21 217z" />
<glyph unicode="&#xce;" horiz-adv-x="661" d="M-43 1532v10q82 47 153.5 126t101.5 129t48 91q25 6 45 6q49 0 86 -38.5t61.5 -91t82 -117t139.5 -105.5v-10q-18 -8 -64 -8q-68 0 -161 59t-130 119h-10q-37 -59 -129 -118.5t-160 -59.5q-45 0 -63 8zM182 1436q63 18 113 18q72 0 117 -34t45 -93q0 -90 -4 -261t-4 -257 q0 -532 34 -805q-127 -20 -137 -20q-133 0 -133 139v631q0 246 -10 465q-11 199 -21 217z" />
<glyph unicode="&#xcf;" horiz-adv-x="661" d="M2 1724.5q0 49.5 36 85t85 35.5t85 -35.5t36 -85t-36 -85t-85 -35.5t-85 35.5t-36 85zM182 1436q63 18 113 18q72 0 117 -34t45 -93q0 -90 -4 -261t-4 -257q0 -532 34 -805q-127 -20 -137 -20q-133 0 -133 139v631q0 246 -10 465q-11 199 -21 217zM397 1724.5 q0 49.5 36 85t83 35.5q51 0 87 -35.5t36 -85t-36 -85t-87 -35.5q-47 0 -83 35.5t-36 85z" />
<glyph unicode="&#xd0;" horiz-adv-x="1669" d="M111 715q0 53 15 69.5t56 16.5h84l-10 418q-10 199 -20 215h454q135 0 254 -20.5t232.5 -72t195.5 -130t132 -204.5t50 -288q0 -317 -199.5 -527t-496.5 -210q-72 0 -248 9t-364 9q23 57 22 567v86q-117 -4 -151 -8q-6 33 -6 70zM504 575q0 -186 6 -376q2 -96 283 -97 q229 0 363 166t134 412q0 172 -58 301t-157.5 201.5t-216.5 107.5t-248 35q-68 0 -100 -2q-4 -283 -6 -530h149q180 0 238 8q6 -33 6 -70q0 -53 -15.5 -69.5t-56.5 -16.5q-61 0 -180 3t-141 3v-76z" />
<glyph unicode="&#xd1;" horiz-adv-x="1562" d="M186 1434q49 16 105 16q84 0 106 -35q90 -133 217 -285l398 -479q178 -217 205 -272l8 8q-4 76 -7.5 398.5t-9.5 433.5q-10 199 -20 217q35 18 76 18q61 0 77.5 -26.5t16.5 -90.5q0 -115 -5 -376t-5 -431q0 -449 18 -530q-45 -12 -100 -12q-59 0 -97 55q-70 109 -225 295 l-405 485q-182 221 -195 269l-8 -9q0 -158 9 -475t9 -487q0 -88 -12 -113.5t-63 -25.5q-18 0 -41 5t-37 9l-13 6q31 55 31 565q0 356 -12 652q-11 199 -21 215zM408 1612q16 88 79.5 140t161.5 52q76 0 185.5 -48t162.5 -48q68 0 148 70q-16 -88 -80 -141.5t-162 -53.5 q-78 0 -187.5 49t-160.5 49q-67 1 -147 -69z" />
<glyph unicode="&#xd2;" horiz-adv-x="1681" d="M115 682q0 154 48 293t138 248.5t234.5 175t320.5 65.5q227 0 393 -98t243 -247.5t77 -325.5q0 -160 -48 -306.5t-138.5 -262t-234.5 -185.5t-321 -70q-336 0 -524 209t-188 504zM379 731q0 -168 53 -313.5t165 -240.5t259 -95q139 0 244.5 98.5t155 245.5t49.5 317 q0 156 -53.5 292t-165 226.5t-261.5 90.5q-139 0 -243.5 -92.5t-153.5 -230.5t-49 -298zM627 1790l16 27q10 16 51 43.5t90 27.5q111 -250 283 -346v-10q-18 -8 -63 -8q-96 0 -224 84t-153 182z" />
<glyph unicode="&#xd3;" horiz-adv-x="1681" d="M115 682q0 154 48 293t138 248.5t234.5 175t320.5 65.5q227 0 393 -98t243 -247.5t77 -325.5q0 -160 -48 -306.5t-138.5 -262t-234.5 -185.5t-321 -70q-336 0 -524 209t-188 504zM379 731q0 -168 53 -313.5t165 -240.5t259 -95q139 0 244.5 98.5t155 245.5t49.5 317 q0 156 -53.5 292t-165 226.5t-261.5 90.5q-139 0 -243.5 -92.5t-153.5 -230.5t-49 -298zM627 1532v10q172 96 282 346q31 0 58.5 -10t45 -24.5t31 -29t17.5 -24.5l6 -10q-25 -98 -153 -182t-224 -84q-45 0 -63 8z" />
<glyph unicode="&#xd4;" horiz-adv-x="1681" d="M115 682q0 154 48 293t138 248.5t234.5 175t320.5 65.5q227 0 393 -98t243 -247.5t77 -325.5q0 -160 -48 -306.5t-138.5 -262t-234.5 -185.5t-321 -70q-336 0 -524 209t-188 504zM379 731q0 -168 53 -313.5t165 -240.5t259 -95q139 0 244.5 98.5t155 245.5t49.5 317 q0 156 -53.5 292t-165 226.5t-261.5 90.5q-139 0 -243.5 -92.5t-153.5 -230.5t-49 -298zM483 1532v10q82 47 154 126t101.5 129t47.5 91q25 6 45 6q49 0 86 -38.5t62 -91t82 -117t139 -105.5v-10q-18 -8 -63 -8q-68 0 -161 59t-130 119h-10q-37 -59 -129.5 -118.5 t-159.5 -59.5q-46 0 -64 8z" />
<glyph unicode="&#xd5;" horiz-adv-x="1681" d="M115 682q0 154 48 293t138 248.5t234.5 175t320.5 65.5q227 0 393 -98t243 -247.5t77 -325.5q0 -160 -48 -306.5t-138.5 -262t-234.5 -185.5t-321 -70q-336 0 -524 209t-188 504zM379 731q0 -168 53 -313.5t165 -240.5t259 -95q139 0 244.5 98.5t155 245.5t49.5 317 q0 156 -53.5 292t-165 226.5t-261.5 90.5q-139 0 -243.5 -92.5t-153.5 -230.5t-49 -298zM477 1612q16 88 80 140t162 52q76 0 185.5 -48t162.5 -48q68 0 147 70q-16 -88 -79.5 -141.5t-161.5 -53.5q-78 0 -187.5 49t-160.5 49q-68 1 -148 -69z" />
<glyph unicode="&#xd6;" horiz-adv-x="1681" d="M115 682q0 154 48 293t138 248.5t234.5 175t320.5 65.5q227 0 393 -98t243 -247.5t77 -325.5q0 -160 -48 -306.5t-138.5 -262t-234.5 -185.5t-321 -70q-336 0 -524 209t-188 504zM379 731q0 -168 53 -313.5t165 -240.5t259 -95q139 0 244.5 98.5t155 245.5t49.5 317 q0 156 -53.5 292t-165 226.5t-261.5 90.5q-139 0 -243.5 -92.5t-153.5 -230.5t-49 -298zM528 1724.5q0 49.5 36 85t85 35.5t85 -35.5t36 -85t-36 -85t-85 -35.5t-85 35.5t-36 85zM924 1724.5q0 49.5 35.5 85t82.5 35.5q51 0 87 -35.5t36 -85t-35.5 -85t-87.5 -35.5 q-47 0 -82.5 35.5t-35.5 85z" />
<glyph unicode="&#xd7;" horiz-adv-x="894" d="M96 848q66 96 99 96q16 0 43.5 -25.5t94.5 -99.5l113 -123l48 47q145 145 196 211q98 -61 98 -104q0 -10 -30 -40l-98 -91q-67 -61 -119 -117l37 -35l84 -83l81.5 -80.5t53.5 -45.5q-59 -90 -109 -90q-12 0 -35.5 22.5t-103.5 108.5l-103 111l-36 -37 q-176 -176 -209 -219q-90 59 -90 108q0 16 135 142l106 100l-45 47q-64 66 -211 197z" />
<glyph unicode="&#xd8;" horiz-adv-x="1681" d="M115 682q0 154 48 293t138 248.5t234.5 175t320.5 65.5q186 0 340 -71q70 111 98 172q102 -47 103 -80q0 -6 -72 -113l-27 -37q131 -92 201 -236.5t70 -305.5q0 -160 -48 -306.5t-138.5 -262t-234.5 -185.5t-321 -70q-213 0 -374 90q-86 -127 -111 -180q-96 41 -96 90 q0 12 35 62l69 102q-235 203 -235 549zM379 731q0 -236 98 -409l625 927q-119 102 -277 103q-139 0 -243.5 -92.5t-153.5 -230.5t-49 -298zM555 215q123 -133 301 -133q139 0 244.5 98.5t155 245.5t49.5 317q0 242 -123 418z" />
<glyph unicode="&#xd9;" horiz-adv-x="1533" d="M172 1436q76 18 113 18q72 0 116.5 -34t44.5 -93q0 -68 -1 -348.5t-1 -370.5q0 -248 101.5 -382t279.5 -134q176 0 277.5 134t101.5 382q0 586 -22 828q61 18 92 18q53 0 66.5 -28.5t13.5 -98.5q0 -90 -8.5 -348t-8.5 -344q0 -666 -563 -666q-266 0 -421.5 160 t-155.5 494q0 213 -2 373.5t-6.5 239.5t-8.5 124t-6 59.5t-2 16.5zM571 1790l17 27q10 16 51 43.5t90 27.5h8q111 -250 283 -346v-10q-16 -8 -57 -8h-7h-8q-96 0 -224 84t-153 182z" />
<glyph unicode="&#xda;" horiz-adv-x="1533" d="M172 1436q76 18 113 18q72 0 116.5 -34t44.5 -93q0 -68 -1 -348.5t-1 -370.5q0 -248 101.5 -382t279.5 -134q176 0 277.5 134t101.5 382q0 586 -22 828q61 18 92 18q53 0 66.5 -28.5t13.5 -98.5q0 -90 -8.5 -348t-8.5 -344q0 -666 -563 -666q-266 0 -421.5 160 t-155.5 494q0 213 -2 373.5t-6.5 239.5t-8.5 124t-6 59.5t-2 16.5zM571 1532v10q172 96 283 346q31 0 58.5 -10t45 -24.5t30.5 -29t20 -24.5l4 -10q-25 -98 -153 -182t-224 -84q-46 0 -64 8z" />
<glyph unicode="&#xdb;" horiz-adv-x="1533" d="M172 1436q76 18 113 18q72 0 116.5 -34t44.5 -93q0 -68 -1 -348.5t-1 -370.5q0 -248 101.5 -382t279.5 -134q176 0 277.5 134t101.5 382q0 586 -22 828q61 18 92 18q53 0 66.5 -28.5t13.5 -98.5q0 -90 -8.5 -348t-8.5 -344q0 -666 -563 -666q-266 0 -421.5 160 t-155.5 494q0 213 -2 373.5t-6.5 239.5t-8.5 124t-6 59.5t-2 16.5zM428 1532v10q82 47 153.5 126t101.5 129t48 91q25 6 45 6q49 0 86 -38.5t61.5 -91t82 -117t139.5 -105.5v-10q-18 -8 -64 -8q-68 0 -161 59t-129 119h-11q-37 -59 -129 -118.5t-159 -59.5q-46 0 -64 8z" />
<glyph unicode="&#xdc;" horiz-adv-x="1533" d="M172 1436q76 18 113 18q72 0 116.5 -34t44.5 -93q0 -68 -1 -348.5t-1 -370.5q0 -248 101.5 -382t279.5 -134q176 0 277.5 134t101.5 382q0 586 -22 828q61 18 92 18q53 0 66.5 -28.5t13.5 -98.5q0 -90 -8.5 -348t-8.5 -344q0 -666 -563 -666q-266 0 -421.5 160 t-155.5 494q0 213 -2 373.5t-6.5 239.5t-8.5 124t-6 59.5t-2 16.5zM473 1724.5q0 49.5 36 85t85 35.5t85 -35.5t36 -85t-36 -85t-85 -35.5t-85 35.5t-36 85zM868 1724.5q0 49.5 36 85t83 35.5q51 0 87 -35.5t36 -85t-36 -85t-87 -35.5q-47 0 -83 35.5t-36 85z" />
<glyph unicode="&#xdd;" d="M25 1423v11q57 16 155 16q96 0 131 -21.5t70 -85.5q143 -260 332 -514h10l145 241l105 181q33 57 71.5 110.5t71.5 71t80 17.5q25 0 53.5 -4t44.5 -8l17 -4v-11q-70 -55 -129 -133q-70 -88 -215.5 -309t-184.5 -293q0 -426 35 -688q-129 -20 -137 -20q-133 0 -133 139 v565q-43 45 -123 164l-172 265q-92 146 -127 196q-18 27 -43 55.5t-41 44.5zM463 1532v10q172 96 282 346q49 0 88 -24.5t56 -48.5l14 -25q-25 -98 -152.5 -182t-224.5 -84q-45 0 -63 8z" />
<glyph unicode="&#xde;" horiz-adv-x="1187" d="M182 1436q63 18 113 18q72 0 117 -34t45 -93q0 -104 -2 -156h133q262 0 399 -122.5t137 -294.5q0 -217 -174 -341t-401 -124h-92q10 -156 26 -285q-127 -20 -137 -20q-133 0 -133 139v631q0 246 -10 465q-11 199 -21 217zM449 809q0 -281 4 -420h55q172 0 271.5 103.5 t99.5 242.5q0 135 -96.5 231.5t-274.5 96.5h-55q-4 -172 -4 -254z" />
<glyph unicode="&#xdf;" horiz-adv-x="1329" d="M25 -444q72 23 106.5 82t57 256.5t22.5 582.5q0 276 -16.5 357t-77.5 104l-54 20v66q147 0 148 129q0 182 148.5 287.5t338.5 105.5q154 0 260.5 -74.5t106.5 -216.5q0 -72 -44 -141.5t-97.5 -115.5t-97.5 -102t-44 -105q0 -45 51.5 -82t125 -69t147.5 -73t125 -113.5 t51 -168.5q0 -147 -110.5 -231.5t-260.5 -84.5q-92 0 -220 39t-128 107q0 51 51 133h11q4 -6 13 -17.5t40 -41t63.5 -51t85 -40t107.5 -18.5q82 0 121 41t39 100q0 49 -51.5 91t-125 77t-147.5 77t-125 111.5t-51 159.5q0 63 24.5 113.5t60.5 86.5l72 74q36 38 60.5 97 t24.5 135t-44 138.5t-120 62.5q-51 0 -92 -18.5t-67 -44t-44 -75t-27.5 -87t-13.5 -104t-5 -104.5t-1 -110q0 -129 1 -441.5t1 -520.5q0 -156 -86 -283t-240 -127q-37 0 -73 16v11z" />
<glyph unicode="&#xe0;" horiz-adv-x="1034" d="M74 244q0 104 54 184t142 122t178.5 61.5t182.5 21.5v18q0 137 -42 203t-155 66q-145 0 -282 -123l-9 8q25 96 136.5 173t242.5 77q104 0 173 -29t101.5 -84t44 -111.5t11.5 -136.5q0 -53 -3 -177t-3 -181v-25q0 -227 102 -227l78 29l8 -7q-2 -6 -6 -14t-22.5 -29.5 t-42 -39t-65.5 -30.5t-91 -13q-72 0 -122 33.5t-52 109.5l-8 4q-37 -68 -112 -113t-167 -45q-125 0 -198.5 79t-73.5 196zM281 1436l16 26q10 16 51 44t90 28q111 -250 283 -346v-10q-18 -8 -64 -9q-96 0 -223.5 84.5t-152.5 182.5zM305 283q0 -86 39 -127t98 -41 q57 0 120 43t63 98q0 39 3 139.5t3 155.5l-69 -13q-26 -5 -81 -25.5t-88 -46.5t-60.5 -74t-27.5 -109z" />
<glyph unicode="&#xe1;" horiz-adv-x="1034" d="M74 244q0 104 54 184t142 122t178.5 61.5t182.5 21.5v18q0 137 -42 203t-155 66q-145 0 -282 -123l-9 8q25 96 136.5 173t242.5 77q104 0 173 -29t101.5 -84t44 -111.5t11.5 -136.5q0 -53 -3 -177t-3 -181v-25q0 -227 102 -227l78 29l8 -7q-2 -6 -6 -14t-22.5 -29.5 t-42 -39t-65.5 -30.5t-91 -13q-72 0 -122 33.5t-52 109.5l-8 4q-37 -68 -112 -113t-167 -45q-125 0 -198.5 79t-73.5 196zM281 1178v10q172 96 282 346q31 0 58.5 -10.5t45 -24.5t31 -28.5t19.5 -24.5l4 -10q-25 -98 -153 -182.5t-224 -84.5q-45 1 -63 9zM305 283 q0 -86 39 -127t98 -41q57 0 120 43t63 98q0 39 3 139.5t3 155.5l-69 -13q-26 -5 -81 -25.5t-88 -46.5t-60.5 -74t-27.5 -109z" />
<glyph unicode="&#xe2;" horiz-adv-x="1034" d="M74 244q0 104 54 184t142 122t178.5 61.5t182.5 21.5v18q0 137 -42 203t-155 66q-145 0 -282 -123l-9 8q25 96 136.5 173t242.5 77q104 0 173 -29t101.5 -84t44 -111.5t11.5 -136.5q0 -53 -3 -177t-3 -181v-25q0 -227 102 -227l78 29l8 -7q-2 -6 -6 -14t-22.5 -29.5 t-42 -39t-65.5 -30.5t-91 -13q-72 0 -122 33.5t-52 109.5l-8 4q-37 -68 -112 -113t-167 -45q-125 0 -198.5 79t-73.5 196zM137 1178v10q82 47 153.5 126t101.5 129t48 91q25 6 45 6q49 0 86 -39t61.5 -91t82 -116.5t139.5 -105.5v-10q-18 -8 -63 -9q-68 0 -161 59.5 t-130 119.5h-11q-37 -59 -129 -119t-159 -60q-46 1 -64 9zM305 283q0 -86 39 -127t98 -41q57 0 120 43t63 98q0 39 3 139.5t3 155.5l-69 -13q-26 -5 -81 -25.5t-88 -46.5t-60.5 -74t-27.5 -109z" />
<glyph unicode="&#xe3;" horiz-adv-x="1034" d="M74 244q0 104 54 184t142 122t178.5 61.5t182.5 21.5v18q0 137 -42 203t-155 66q-145 0 -282 -123l-9 8q25 96 136.5 173t242.5 77q104 0 173 -29t101.5 -84t44 -111.5t11.5 -136.5q0 -53 -3 -177t-3 -181v-25q0 -227 102 -227l78 29l8 -7q-2 -6 -6 -14t-22.5 -29.5 t-42 -39t-65.5 -30.5t-91 -13q-72 0 -122 33.5t-52 109.5l-8 4q-37 -68 -112 -113t-167 -45q-125 0 -198.5 79t-73.5 196zM131 1257q16 88 79.5 140.5t162.5 52.5q76 0 185.5 -48t162.5 -48q68 0 147 69q-16 -88 -79.5 -141t-161.5 -53q-78 0 -187.5 49t-160.5 49 q-68 0 -148 -70zM305 283q0 -86 39 -127t98 -41q57 0 120 43t63 98q0 39 3 139.5t3 155.5l-69 -13q-26 -5 -81 -25.5t-88 -46.5t-60.5 -74t-27.5 -109z" />
<glyph unicode="&#xe4;" horiz-adv-x="1034" d="M74 244q0 104 54 184t142 122t178.5 61.5t182.5 21.5v18q0 137 -42 203t-155 66q-145 0 -282 -123l-9 8q25 96 136.5 173t242.5 77q104 0 173 -29t101.5 -84t44 -111.5t11.5 -136.5q0 -53 -3 -177t-3 -181v-25q0 -227 102 -227l78 29l8 -7q-2 -6 -6 -14t-22.5 -29.5 t-42 -39t-65.5 -30.5t-91 -13q-72 0 -122 33.5t-52 109.5l-8 4q-37 -68 -112 -113t-167 -45q-125 0 -198.5 79t-73.5 196zM182 1370q0 49 36 85t85 36t85 -36t36 -85t-36 -85t-85 -36t-85 36t-36 85zM305 283q0 -86 39 -127t98 -41q57 0 120 43t63 98q0 39 3 139.5t3 155.5 l-69 -13q-26 -5 -81 -25.5t-88 -46.5t-60.5 -74t-27.5 -109zM578 1370q0 49 35.5 85t82.5 36q51 0 87 -36t36 -85t-35.5 -85t-87.5 -36q-47 0 -82.5 36t-35.5 85z" />
<glyph unicode="&#xe5;" horiz-adv-x="1034" d="M74 244q0 104 54 184t142 122t178.5 61.5t182.5 21.5v18q0 137 -42 203t-155 66q-145 0 -282 -123l-9 8q25 96 136.5 173t242.5 77q104 0 173 -29t101.5 -84t44 -111.5t11.5 -136.5q0 -53 -3 -177t-3 -181v-25q0 -227 102 -227l78 29l8 -7q-2 -6 -6 -14t-22.5 -29.5 t-42 -39t-65.5 -30.5t-91 -13q-72 0 -122 33.5t-52 109.5l-8 4q-37 -68 -112 -113t-167 -45q-125 0 -198.5 79t-73.5 196zM305 283q0 -86 39 -127t98 -41q57 0 120 43t63 98q0 39 3 139.5t3 155.5l-69 -13q-26 -5 -81 -25.5t-88 -46.5t-60.5 -74t-27.5 -109zM317 1356 q0 74 54.5 127t128 53t130 -53t56.5 -127t-56.5 -127t-130 -53t-128 53t-54.5 127zM393 1358q0 -43 32 -80t77 -37q49 0 78.5 36t29.5 81q0 43 -32.5 75.5t-75.5 32.5q-45 0 -77 -31.5t-32 -76.5z" />
<glyph unicode="&#xe6;" horiz-adv-x="1589" d="M74 244q0 106 54 183t143 117t181.5 58.5t190.5 20.5v28q0 135 -47 202t-162 67q-145 0 -282 -123l-9 8q25 96 136.5 173t242.5 77q113 0 178.5 -35t100.5 -111h10q119 145 299 146q188 0 282.5 -87t94.5 -206q0 -135 -119 -198.5t-276 -63.5q-53 0 -111.5 9t-91.5 17 l-31 9q0 -184 86 -298t240 -114q158 0 315 113l6 4l11 -11q-2 -10 -9.5 -27.5t-38 -62.5t-71.5 -79.5t-120 -62.5t-175 -28q-236 0 -371 178q-6 -8 -17.5 -19t-49 -42t-78.5 -54.5t-106.5 -43t-133.5 -19.5q-125 0 -198.5 79t-73.5 196zM305 283q0 -86 39 -127t98 -41 q121 0 238 108l4 4q-53 100 -53 258l2 56q-33 -2 -68 -8.5t-84 -23.5t-86 -44t-63.5 -74t-26.5 -108zM860 625q0 -4 29 -9.5t75 -9.5t87 -4q78 0 135 40t57 122t-39 141.5t-121 59.5q-66 0 -121 -71t-78.5 -146.5t-23.5 -122.5z" />
<glyph unicode="&#xe7;" horiz-adv-x="1071" d="M84 479q0 242 156.5 409t400.5 167q53 0 124 -12.5t138.5 -48.5t67.5 -85q0 -61 -72 -137h-10q-4 8 -13.5 20.5t-39 44t-61.5 56.5t-81 45t-98 20q-94 0 -159.5 -65.5t-90 -152.5t-24.5 -183q0 -186 94 -311t248 -125q70 0 152.5 33.5t129.5 66.5l49 33l9 -8l-12 -29 q-7 -18 -39.5 -65.5t-75.5 -83t-121 -66.5t-170 -33q-25 -41 -25 -69q0 -18 31 -28.5t68.5 -17t68.5 -37t31 -85.5q0 -88 -62.5 -146.5t-169.5 -58.5q-74 0 -116.5 27.5t-42.5 76.5q0 23 8 45l8 5q31 -47 137 -48q51 0 76 24t25 48q0 27 -27 42t-57.5 21.5t-57 25 t-26.5 50.5q0 55 63 129q-186 23 -310 165t-124 341z" />
<glyph unicode="&#xe8;" horiz-adv-x="1052" d="M88 485.5q0 225.5 135 397.5t350 172q188 0 282.5 -87t94.5 -206q0 -96 -63.5 -161.5t-148.5 -91.5t-183 -26q-53 0 -109.5 14.5t-85.5 28.5l-30 15l-8 -4q0 -188 85 -301t240 -113q158 0 316 113l6 4l10 -11q-2 -10 -9 -27.5t-38 -62.5t-72 -79.5t-119.5 -62.5 t-175.5 -28q-207 0 -342 145.5t-135 371zM324 635q0 -8 28.5 -19.5t74.5 -20.5t87 -9q78 0 135.5 45t57.5 133q0 82 -39 139.5t-121 57.5q-66 0 -121 -67t-78.5 -139.5t-23.5 -119.5zM336 1436l16 26q10 16 51 44t91 28q111 -250 282 -346v-10q-18 -8 -63 -9 q-96 0 -224 84.5t-153 182.5z" />
<glyph unicode="&#xe9;" horiz-adv-x="1052" d="M88 485.5q0 225.5 135 397.5t350 172q188 0 282.5 -87t94.5 -206q0 -96 -63.5 -161.5t-148.5 -91.5t-183 -26q-53 0 -109.5 14.5t-85.5 28.5l-30 15l-8 -4q0 -188 85 -301t240 -113q158 0 316 113l6 4l10 -11q-2 -10 -9 -27.5t-38 -62.5t-72 -79.5t-119.5 -62.5 t-175.5 -28q-207 0 -342 145.5t-135 371zM324 635q0 -8 28.5 -19.5t74.5 -20.5t87 -9q78 0 135.5 45t57.5 133q0 82 -39 139.5t-121 57.5q-66 0 -121 -67t-78.5 -139.5t-23.5 -119.5zM336 1178v10q172 96 282 346q49 0 88 -24.5t56 -49.5l14 -24q-25 -98 -152.5 -182.5 t-224.5 -84.5q-45 1 -63 9z" />
<glyph unicode="&#xea;" horiz-adv-x="1052" d="M88 485.5q0 225.5 135 397.5t350 172q188 0 282.5 -87t94.5 -206q0 -96 -63.5 -161.5t-148.5 -91.5t-183 -26q-53 0 -109.5 14.5t-85.5 28.5l-30 15l-8 -4q0 -188 85 -301t240 -113q158 0 316 113l6 4l10 -11q-2 -10 -9 -27.5t-38 -62.5t-72 -79.5t-119.5 -62.5 t-175.5 -28q-207 0 -342 145.5t-135 371zM193 1178v10q82 47 153.5 126t101 129t48.5 91q25 6 45 6q49 0 86 -39t61.5 -91t81.5 -116.5t139 -105.5v-10q-18 -8 -63 -9q-68 0 -161 59.5t-130 119.5h-10q-37 -59 -129 -119t-160 -60q-45 1 -63 9zM324 635q0 -8 28.5 -19.5 t74.5 -20.5t87 -9q78 0 135.5 45t57.5 133q0 82 -39 139.5t-121 57.5q-66 0 -121 -67t-78.5 -139.5t-23.5 -119.5z" />
<glyph unicode="&#xeb;" horiz-adv-x="1052" d="M88 485.5q0 225.5 135 397.5t350 172q188 0 282.5 -87t94.5 -206q0 -96 -63.5 -161.5t-148.5 -91.5t-183 -26q-53 0 -109.5 14.5t-85.5 28.5l-30 15l-8 -4q0 -188 85 -301t240 -113q158 0 316 113l6 4l10 -11q-2 -10 -9 -27.5t-38 -62.5t-72 -79.5t-119.5 -62.5 t-175.5 -28q-207 0 -342 145.5t-135 371zM238 1370q0 49 35.5 85t85 36t85 -36t35.5 -85t-35.5 -85t-85 -36t-85 36t-35.5 85zM324 635q0 -8 28.5 -19.5t74.5 -20.5t87 -9q78 0 135.5 45t57.5 133q0 82 -39 139.5t-121 57.5q-66 0 -121 -67t-78.5 -139.5t-23.5 -119.5z M633 1370q0 49 36 85t83 36q51 0 86.5 -36t35.5 -85t-35.5 -85t-86.5 -36q-47 0 -83 36t-36 85z" />
<glyph unicode="&#xec;" horiz-adv-x="598" d="M66 1436l16 26q10 16 51 44t90 28q111 -250 283 -346v-10q-18 -8 -64 -9q-96 0 -223.5 84.5t-152.5 182.5zM127 1026q63 18 100 18q72 0 123 -35.5t51 -95.5q0 -117 -5 -331.5t-5 -282.5q0 -47 2 -74.5t11.5 -65.5t32 -56.5t57.5 -18.5l77 29l9 -7q-2 -6 -6.5 -14 t-23 -29.5t-42 -39t-65.5 -30.5t-91 -13q-78 0 -131 39.5t-53 125.5q0 59 4 176t4 175q0 209 -12 341t-22.5 160.5t-14.5 28.5z" />
<glyph unicode="&#xed;" horiz-adv-x="598" d="M66 1178v10q172 96 282 346q31 0 58.5 -10.5t45 -24.5t31 -28.5t17.5 -24.5l6 -10q-25 -98 -153 -182.5t-224 -84.5q-45 1 -63 9zM127 1026q63 18 100 18q72 0 123 -35.5t51 -95.5q0 -117 -5 -331.5t-5 -282.5q0 -47 2 -74.5t11.5 -65.5t32 -56.5t57.5 -18.5l77 29l9 -7 q-2 -6 -6.5 -14t-23 -29.5t-42 -39t-65.5 -30.5t-91 -13q-78 0 -131 39.5t-53 125.5q0 59 4 176t4 175q0 209 -12 341t-22.5 160.5t-14.5 28.5z" />
<glyph unicode="&#xee;" horiz-adv-x="598" d="M-78 1178v10q82 47 153.5 126t101.5 129t48 91q25 6 45 6q49 0 86 -39t61.5 -91t82 -116.5t139.5 -105.5v-10q-18 -8 -64 -9q-68 0 -160.5 59.5t-129.5 119.5h-11q-37 -59 -129 -119t-159 -60q-46 1 -64 9zM127 1026q63 18 100 18q72 0 123 -35.5t51 -95.5 q0 -117 -5 -331.5t-5 -282.5q0 -47 2 -74.5t11.5 -65.5t32 -56.5t57.5 -18.5l77 29l9 -7q-2 -6 -6.5 -14t-23 -29.5t-42 -39t-65.5 -30.5t-91 -13q-78 0 -131 39.5t-53 125.5q0 59 4 176t4 175q0 209 -12 341t-22.5 160.5t-14.5 28.5z" />
<glyph unicode="&#xef;" horiz-adv-x="598" d="M-33 1370q0 49 36 85t85 36t85 -36t36 -85t-36 -85t-85 -36t-85 36t-36 85zM127 1026q63 18 100 18q72 0 123 -35.5t51 -95.5q0 -117 -5 -331.5t-5 -282.5q0 -47 2 -74.5t11.5 -65.5t32 -56.5t57.5 -18.5l77 29l9 -7q-2 -6 -6.5 -14t-23 -29.5t-42 -39t-65.5 -30.5 t-91 -13q-78 0 -131 39.5t-53 125.5q0 59 4 176t4 175q0 209 -12 341t-22.5 160.5t-14.5 28.5zM362 1370q0 49 36 85t83 36q51 0 87 -36t36 -85t-36 -85t-87 -36q-47 0 -83 36t-36 85z" />
<glyph unicode="&#xf0;" horiz-adv-x="1200" d="M92 453q0 244 146.5 386t361.5 142q57 0 105.5 -11.5t68.5 -23.5l21 -12l8 8q-33 180 -121 320l-186 -91q-172 -88 -209 -112q-18 23 -31 49q-16 31 -16 51q0 29 45 49l317 150q-88 76 -194 76q-53 0 -106.5 -27t-80.5 -51l-28 -27l-13 6q0 8 1 23.5t16.5 54.5t42 67.5 t86 53.5t139.5 25q176 0 315 -113q152 74 195 104q18 -23 32.5 -51.5t14.5 -48.5q0 -27 -45 -49q-35 -18 -105 -51q100 -127 154.5 -303.5t54.5 -352.5q0 -213 -47 -369.5t-164.5 -256t-296.5 -99.5q-238 0 -359.5 140.5t-121.5 343.5zM328 475q0 -168 65.5 -292t179.5 -124 q121 0 185.5 172t64.5 426q0 106 -32 156q-49 76 -181 76q-127 0 -204.5 -110.5t-77.5 -303.5z" />
<glyph unicode="&#xf1;" horiz-adv-x="1251" d="M139 0q8 4 19.5 48t20.5 165t9 289q0 111 -8 307q-10 199 -41 217q63 18 101 18q70 0 114.5 -31.5t44.5 -80.5l-8 -51l8 -2q35 78 139.5 127t219.5 49q96 0 159.5 -23.5t92 -70t38 -91.5t9.5 -110q0 -72 -4 -220.5t-4 -240.5q0 -47 2 -74.5t11 -65.5t31.5 -56.5 t57.5 -18.5l78 29l8 -7q-2 -6 -6 -14t-22.5 -29.5t-42 -39t-65.5 -30.5t-91 -13q-76 0 -130.5 39.5t-54.5 125.5q0 84 3 242t3 266q0 53 -2 84t-11 73t-27.5 64.5t-53.5 39t-86 16.5q-92 0 -168.5 -79t-76.5 -214q0 -90 4 -255t4 -263q0 -139 -129 -139q-48 0 -146 20z M276 1257q16 88 80 140.5t162 52.5q76 0 185.5 -48t162.5 -48q68 0 148 69q-16 -88 -80 -141t-162 -53q-78 0 -187.5 49t-160.5 49q-68 0 -148 -70z" />
<glyph unicode="&#xf2;" horiz-adv-x="1228" d="M84 487q0 233 143.5 400.5t397.5 167.5q244 0 382 -143.5t138 -344.5q0 -244 -144.5 -421t-396.5 -177q-246 0 -383 152.5t-137 365.5zM334 522q0 -188 76.5 -323.5t214.5 -135.5q129 0 199.5 138.5t70.5 328.5q0 176 -77 303.5t-216 127.5q-129 0 -198.5 -129.5 t-69.5 -309.5zM395 1436l17 26q10 16 51 44t90 28q111 -250 283 -346v-10q-18 -8 -64 -9q-96 0 -224 84.5t-153 182.5z" />
<glyph unicode="&#xf3;" horiz-adv-x="1228" d="M84 487q0 233 143.5 400.5t397.5 167.5q244 0 382 -143.5t138 -344.5q0 -244 -144.5 -421t-396.5 -177q-246 0 -383 152.5t-137 365.5zM334 522q0 -188 76.5 -323.5t214.5 -135.5q129 0 199.5 138.5t70.5 328.5q0 176 -77 303.5t-216 127.5q-129 0 -198.5 -129.5 t-69.5 -309.5zM395 1178v10q172 96 283 346q31 0 58.5 -10.5t45 -24.5t30.5 -28.5t19 -24.5l5 -10q-25 -98 -153 -182.5t-224 -84.5q-46 1 -64 9z" />
<glyph unicode="&#xf4;" horiz-adv-x="1228" d="M84 487q0 233 143.5 400.5t397.5 167.5q244 0 382 -143.5t138 -344.5q0 -244 -144.5 -421t-396.5 -177q-246 0 -383 152.5t-137 365.5zM252 1178v10q82 47 153.5 126t101.5 129t48 91q25 6 45 6q49 0 86 -39t61.5 -91t82 -116.5t139.5 -105.5v-10q-18 -8 -64 -9 q-68 0 -161 59.5t-130 119.5h-10q-37 -59 -129 -119t-160 -60q-45 1 -63 9zM334 522q0 -188 76.5 -323.5t214.5 -135.5q129 0 199.5 138.5t70.5 328.5q0 176 -77 303.5t-216 127.5q-129 0 -198.5 -129.5t-69.5 -309.5z" />
<glyph unicode="&#xf5;" horiz-adv-x="1228" d="M84 487q0 233 143.5 400.5t397.5 167.5q244 0 382 -143.5t138 -344.5q0 -244 -144.5 -421t-396.5 -177q-246 0 -383 152.5t-137 365.5zM246 1257q16 88 79.5 140.5t161.5 52.5q76 0 185.5 -48t163.5 -48q68 0 147 69q-16 -88 -79.5 -141t-162.5 -53q-78 0 -187.5 49 t-160.5 49q-67 0 -147 -70zM334 522q0 -188 76.5 -323.5t214.5 -135.5q129 0 199.5 138.5t70.5 328.5q0 176 -77 303.5t-216 127.5q-129 0 -198.5 -129.5t-69.5 -309.5z" />
<glyph unicode="&#xf6;" horiz-adv-x="1228" d="M84 487q0 233 143.5 400.5t397.5 167.5q244 0 382 -143.5t138 -344.5q0 -244 -144.5 -421t-396.5 -177q-246 0 -383 152.5t-137 365.5zM297 1370q0 49 36 85t85 36t85 -36t36 -85t-36 -85t-85 -36t-85 36t-36 85zM334 522q0 -188 76.5 -323.5t214.5 -135.5 q129 0 199.5 138.5t70.5 328.5q0 176 -77 303.5t-216 127.5q-129 0 -198.5 -129.5t-69.5 -309.5zM692 1370q0 49 36 85t83 36q51 0 87 -36t36 -85t-36 -85t-87 -36q-47 0 -83 36t-36 85z" />
<glyph unicode="&#xf7;" horiz-adv-x="878" d="M72 602q0 88 47 88q129 -10 274 -10h180q166 0 224 10q8 -41 8 -92q0 -66 -29 -66q-125 6 -272 9h-189q-180 0 -237 -9q-6 33 -6 70zM305 256q0 57 41 98t96 41q57 0 98.5 -41t41.5 -98q0 -55 -41 -96t-99 -41q-55 0 -96 41t-41 96zM305 952q0 57 41 98.5t96 41.5 q57 0 98.5 -41t41.5 -99q0 -55 -41 -96t-99 -41q-55 0 -96 41t-41 96z" />
<glyph unicode="&#xf8;" horiz-adv-x="1236" d="M88 487q0 233 143.5 400.5t397.5 167.5q129 0 235 -45l4 4q82 123 113 192q102 -47 102 -80q0 -4 -71 -112l-45 -66q182 -139 182 -381q0 -244 -144.5 -421t-396.5 -177q-141 0 -256 58q-4 -4 -4 -7q-102 -156 -125 -202q-96 41 -96 90q0 12 35 61l88 129 q-162 149 -162 389zM338 522q0 -133 37 -239l407 602q-72 76 -176 76q-129 0 -198.5 -129.5t-69.5 -309.5zM440 162q76 -98 189 -99q129 0 199.5 138.5t70.5 328.5q0 137 -49 248z" />
<glyph unicode="&#xf9;" horiz-adv-x="1226" d="M115 1026q78 18 100 18q72 0 123 -35.5t51 -95.5q0 -82 -3 -238.5t-3 -262.5q0 -57 2 -97.5t12.5 -84.5t27.5 -70.5t50 -44t80 -17.5q90 0 148.5 73t79 163t20.5 190q0 199 -10 318q-6 61 -15.5 107t-15.5 63l-4 14q63 18 100 18q76 0 126 -35.5t50 -97.5 q0 -92 -8 -292.5t-8 -321.5q0 -213 102 -213l78 29l8 -7q-2 -6 -6 -14t-22.5 -29.5t-42 -39t-65.5 -30.5t-91 -13q-68 0 -117 35.5t-49 109.5l2 18l-10 2q-4 -6 -10.5 -18t-33 -43t-60 -53.5t-94 -42t-130.5 -19.5q-182 0 -250.5 89t-68.5 237q0 41 2 133t2 147 q0 156 -6 254q-12 154 -41 197zM358 1436l17 26q10 16 51 44t90 28q111 -250 283 -346v-10q-18 -8 -64 -9q-96 0 -224 84.5t-153 182.5z" />
<glyph unicode="&#xfa;" horiz-adv-x="1226" d="M115 1026q78 18 100 18q72 0 123 -35.5t51 -95.5q0 -82 -3 -238.5t-3 -262.5q0 -57 2 -97.5t12.5 -84.5t27.5 -70.5t50 -44t80 -17.5q90 0 148.5 73t79 163t20.5 190q0 199 -10 318q-6 61 -15.5 107t-15.5 63l-4 14q63 18 100 18q76 0 126 -35.5t50 -97.5 q0 -92 -8 -292.5t-8 -321.5q0 -213 102 -213l78 29l8 -7q-2 -6 -6 -14t-22.5 -29.5t-42 -39t-65.5 -30.5t-91 -13q-68 0 -117 35.5t-49 109.5l2 18l-10 2q-4 -6 -10.5 -18t-33 -43t-60 -53.5t-94 -42t-130.5 -19.5q-182 0 -250.5 89t-68.5 237q0 41 2 133t2 147 q0 156 -6 254q-12 154 -41 197zM358 1178v10q172 96 283 346q31 0 58.5 -10.5t45 -24.5t30.5 -28.5t20 -24.5l4 -10q-25 -98 -153 -182.5t-224 -84.5q-46 1 -64 9z" />
<glyph unicode="&#xfb;" horiz-adv-x="1226" d="M115 1026q78 18 100 18q72 0 123 -35.5t51 -95.5q0 -82 -3 -238.5t-3 -262.5q0 -57 2 -97.5t12.5 -84.5t27.5 -70.5t50 -44t80 -17.5q90 0 148.5 73t79 163t20.5 190q0 199 -10 318q-6 61 -15.5 107t-15.5 63l-4 14q63 18 100 18q76 0 126 -35.5t50 -97.5 q0 -92 -8 -292.5t-8 -321.5q0 -213 102 -213l78 29l8 -7q-2 -6 -6 -14t-22.5 -29.5t-42 -39t-65.5 -30.5t-91 -13q-68 0 -117 35.5t-49 109.5l2 18l-10 2q-4 -6 -10.5 -18t-33 -43t-60 -53.5t-94 -42t-130.5 -19.5q-182 0 -250.5 89t-68.5 237q0 41 2 133t2 147 q0 156 -6 254q-12 154 -41 197zM215 1178v10q82 47 153.5 126t101.5 129t48 91q25 6 45 6q49 0 86 -39t61.5 -91t82 -116.5t139.5 -105.5v-10q-18 -8 -64 -9q-68 0 -161 59.5t-129 119.5h-11q-37 -59 -129 -119t-159 -60q-46 1 -64 9z" />
<glyph unicode="&#xfc;" horiz-adv-x="1226" d="M115 1026q78 18 100 18q72 0 123 -35.5t51 -95.5q0 -82 -3 -238.5t-3 -262.5q0 -57 2 -97.5t12.5 -84.5t27.5 -70.5t50 -44t80 -17.5q90 0 148.5 73t79 163t20.5 190q0 199 -10 318q-6 61 -15.5 107t-15.5 63l-4 14q63 18 100 18q76 0 126 -35.5t50 -97.5 q0 -92 -8 -292.5t-8 -321.5q0 -213 102 -213l78 29l8 -7q-2 -6 -6 -14t-22.5 -29.5t-42 -39t-65.5 -30.5t-91 -13q-68 0 -117 35.5t-49 109.5l2 18l-10 2q-4 -6 -10.5 -18t-33 -43t-60 -53.5t-94 -42t-130.5 -19.5q-182 0 -250.5 89t-68.5 237q0 41 2 133t2 147 q0 156 -6 254q-12 154 -41 197zM260 1370q0 49 36 85t85 36t85 -36t36 -85t-36 -85t-85 -36t-85 36t-36 85zM655 1370q0 49 36 85t83 36q51 0 87 -36t36 -85t-36 -85t-87 -36q-47 0 -83 36t-36 85z" />
<glyph unicode="&#xfd;" horiz-adv-x="1038" d="M4 1014v10q82 16 154 16q135 0 157 -86q31 -127 115 -372.5t156 -425.5q49 141 89 270t61.5 211l39 154.5l27.5 111.5t20.5 71t25.5 44t35.5 17t55.5 5q29 0 52.5 -4t31.5 -8l10 -4v-10q-53 -35 -106 -189l-303 -856q-80 -223 -198 -331.5t-251 -108.5q-31 0 -52.5 3 t-34.5 16.5t-21.5 20.5t-12.5 32.5t-6 35t-3 47t-1 50.5q92 -20 158 -21q199 0 289 205l32 76q-145 35 -180 153q-166 537 -258 744q-43 90 -82 123zM336 1178v10q172 96 282 346q49 0 88 -24.5t56 -49.5l14 -24q-25 -98 -152.5 -182.5t-224.5 -84.5q-45 1 -63 9z" />
<glyph unicode="&#xfe;" horiz-adv-x="1202" d="M137 1550l6 9q66 0 110 -7.5t74.5 -28t47 -42t25 -65.5t10.5 -83t2 -110l-17 -326l11 -4q45 78 138 120t191 42q172 0 274.5 -133.5t102.5 -333.5q0 -274 -153.5 -442.5t-448.5 -168.5q-45 0 -102 11q-2 -35 -2 -99q0 -236 36 -344q-127 -20 -143 -20q-61 0 -93 33.5 t-32 124.5q0 74 3 327.5t3 483.5q0 555 -7 791t-36 265zM401 139q0 -66 138 -65q156 0 241.5 139t85.5 328q0 150 -63.5 269.5t-157.5 119.5q-96 0 -161.5 -63.5t-80.5 -190.5q-2 -88 -2 -281v-256z" />
<glyph unicode="&#xff;" horiz-adv-x="1038" d="M4 1014v10q82 16 154 16q135 0 157 -86q31 -127 115 -372.5t156 -425.5q49 141 89 270t61.5 211l39 154.5l27.5 111.5t20.5 71t25.5 44t35.5 17t55.5 5q29 0 52.5 -4t31.5 -8l10 -4v-10q-53 -35 -106 -189l-303 -856q-80 -223 -198 -331.5t-251 -108.5q-31 0 -52.5 3 t-34.5 16.5t-21.5 20.5t-12.5 32.5t-6 35t-3 47t-1 50.5q92 -20 158 -21q199 0 289 205l32 76q-145 35 -180 153q-166 537 -258 744q-43 90 -82 123zM238 1370q0 49 35.5 85t85 36t85 -36t35.5 -85t-35.5 -85t-85 -36t-85 36t-35.5 85zM633 1370q0 49 36 85t83 36 q51 0 86.5 -36t35.5 -85t-35.5 -85t-86.5 -36q-47 0 -83 36t-36 85z" />
<glyph unicode="&#x152;" horiz-adv-x="2295" d="M117 678q0 338 207.5 562t574.5 224q248 0 410 -182q-8 137 -17 152h377l453 20q-6 -49 -11.5 -70.5t-20.5 -50t-48 -39t-86 -10.5q-109 0 -206 8t-140 17l-43 8q0 -98 -4 -504h315q39 0 68.5 5t40.5 9l12 7q-4 -82 -26.5 -117t-96.5 -35l-315 12v-213q0 -53 4 -167.5 t4 -178.5l375 10q199 6 274 45q2 -23 2 -57q0 -94 -38 -118.5t-157 -24.5l-696 10q6 35 6 166v53q-197 -250 -547 -250q-301 0 -486 199t-185 510zM381 715q0 -250 132 -441.5t323 -191.5q209 0 349 194.5t140 452.5q0 246 -138 434.5t-339 188.5q-197 0 -332 -192.5 t-135 -444.5z" />
<glyph unicode="&#x153;" horiz-adv-x="1884" d="M86 481q0 246 157.5 410t399.5 164q281 0 397 -183h11q131 182 354 183q188 0 282.5 -87t94.5 -206q0 -96 -63.5 -161.5t-148.5 -91.5t-184 -26q-53 0 -109 14.5t-85 28.5l-31 15l-8 -4q0 -188 85 -301t241 -113q158 0 315 113l6 4l10 -11q-2 -10 -9 -27.5t-37.5 -62.5 t-71.5 -79.5t-120 -62.5t-175 -28q-248 0 -373 201h-10q-150 -201 -420 -201q-246 0 -377 132t-131 380zM338 543q0 -205 72.5 -344.5t216.5 -139.5q115 0 193.5 123t78.5 299q0 131 -28.5 236.5t-96 176.5t-168.5 71q-111 0 -189.5 -123t-78.5 -299zM1155 635 q0 -8 28.5 -19.5t75 -20.5t87.5 -9q78 0 135 45t57 133q0 82 -39 141.5t-121 59.5q-90 0 -156.5 -125t-66.5 -205z" />
<glyph unicode="&#x178;" d="M25 1423v11q57 16 155 16q96 0 131 -21.5t70 -85.5q143 -260 332 -514h10l145 241l105 181q33 57 71.5 110.5t71.5 71t80 17.5q25 0 53.5 -4t44.5 -8l17 -4v-11q-70 -55 -129 -133q-70 -88 -215.5 -309t-184.5 -293q0 -426 35 -688q-129 -20 -137 -20q-133 0 -133 139 v565q-43 45 -123 164l-172 265q-92 146 -127 196q-18 27 -43 55.5t-41 44.5zM365 1724.5q0 49.5 35.5 85t85 35.5t85 -35.5t35.5 -85t-35.5 -85t-85 -35.5t-85 35.5t-35.5 85zM760 1724.5q0 49.5 35.5 85t83.5 35.5q51 0 86.5 -35.5t35.5 -85t-35.5 -85t-86.5 -35.5 q-47 0 -83 35.5t-36 85z" />
<glyph unicode="&#x2c6;" horiz-adv-x="819" d="M51 1178v10q82 47 153.5 126t101.5 129t48 91q25 6 45 6q49 0 86 -39t61.5 -91t82 -116.5t139.5 -105.5v-10q-18 -8 -63 -9q-68 0 -161 59.5t-130 119.5h-11q-37 -59 -129 -119t-159 -60q-46 1 -64 9z" />
<glyph unicode="&#x2dc;" horiz-adv-x="819" d="M41 1257q16 88 79.5 140.5t162.5 52.5q76 0 185.5 -48t162.5 -48q68 0 147 69q-16 -88 -79.5 -141t-161.5 -53q-78 0 -187.5 49t-161.5 49q-67 0 -147 -70z" />
<glyph unicode="&#x2000;" horiz-adv-x="947" />
<glyph unicode="&#x2001;" horiz-adv-x="1894" />
<glyph unicode="&#x2002;" horiz-adv-x="947" />
<glyph unicode="&#x2003;" horiz-adv-x="1894" />
<glyph unicode="&#x2004;" horiz-adv-x="631" />
<glyph unicode="&#x2005;" horiz-adv-x="473" />
<glyph unicode="&#x2006;" horiz-adv-x="315" />
<glyph unicode="&#x2007;" horiz-adv-x="315" />
<glyph unicode="&#x2008;" horiz-adv-x="236" />
<glyph unicode="&#x2009;" horiz-adv-x="378" />
<glyph unicode="&#x200a;" horiz-adv-x="105" />
<glyph unicode="&#x2010;" horiz-adv-x="1032" d="M150 565q0 88 47 88q129 -10 274 -10h180q166 0 223 10q8 -41 9 -92q0 -66 -29 -65q-125 6 -272 8h-189q-180 0 -237 -8q-6 32 -6 69z" />
<glyph unicode="&#x2011;" horiz-adv-x="1032" d="M150 565q0 88 47 88q129 -10 274 -10h180q166 0 223 10q8 -41 9 -92q0 -66 -29 -65q-125 6 -272 8h-189q-180 0 -237 -8q-6 32 -6 69z" />
<glyph unicode="&#x2012;" horiz-adv-x="1032" d="M150 565q0 88 47 88q129 -10 274 -10h180q166 0 223 10q8 -41 9 -92q0 -66 -29 -65q-125 6 -272 8h-189q-180 0 -237 -8q-6 32 -6 69z" />
<glyph unicode="&#x2013;" horiz-adv-x="1427" d="M150 567q0 88 47 88q129 -10 274 -10h576q166 0 223 10q8 -41 8 -92q0 -66 -29 -65q-125 6 -272 8h-584q-180 0 -237 -8q-6 32 -6 69z" />
<glyph unicode="&#x2014;" horiz-adv-x="1652" d="M150 567q0 88 47 88q129 -10 274 -10h801q166 0 223 10q8 -41 8 -92q0 -66 -28 -65q-125 6 -273 8h-809q-180 0 -237 -8q-6 32 -6 69z" />
<glyph unicode="&#x2018;" horiz-adv-x="419" d="M82 1044q0 133 79 274.5t183 182.5l8 -8q-59 -178 -59 -383q0 -49 14 -127q-49 -27 -108 -27q-63 0 -107 19q-10 32 -10 69z" />
<glyph unicode="&#x2019;" horiz-adv-x="409" d="M84 965q59 178 59 383q0 49 -14 127q49 27 109 26q63 0 106 -18q10 -33 10 -70q0 -133 -78.5 -274.5t-183.5 -182.5z" />
<glyph unicode="&#x201a;" horiz-adv-x="450" d="M70 -281q59 178 59 383q0 49 -14 127q49 27 108 27q63 0 107 -18q10 -33 10 -70q0 -133 -79 -274.5t-183 -182.5z" />
<glyph unicode="&#x201c;" horiz-adv-x="743" d="M84 1044q0 133 74.5 274.5t173.5 182.5l8 -8q-59 -178 -59 -383q0 -49 14 -127q-49 -27 -109 -27q-51 0 -92 19q-10 28 -10 69zM422 1044q0 133 74.5 274.5t173.5 182.5l8 -8q-59 -178 -60 -383q0 -49 15 -127q-49 -27 -109 -27q-53 0 -92 19q-10 28 -10 69z" />
<glyph unicode="&#x201d;" horiz-adv-x="735" d="M84 965q59 178 59 383q0 49 -14 127q49 27 109 26q53 0 92 -18q10 -29 10 -70q0 -133 -75 -274.5t-173 -182.5zM422 965q59 178 59 383q0 49 -14 127q49 27 108 26q51 0 93 -18q10 -29 10 -70q0 -133 -75 -274.5t-173 -182.5z" />
<glyph unicode="&#x201e;" horiz-adv-x="774" d="M70 -281q59 178 59 383q0 49 -14 127q49 27 108 27q51 0 92 -18q10 -29 11 -70q0 -133 -75 -274.5t-173 -182.5zM408 -281q59 178 59 383q0 49 -14 127q49 27 108 27q53 0 92 -18q10 -29 11 -70q0 -133 -75 -274.5t-173 -182.5z" />
<glyph unicode="&#x2022;" horiz-adv-x="970" d="M123 555.5q0 149.5 106.5 256t256 106.5t256 -106.5t106.5 -256t-106.5 -256t-256 -106.5t-256 106.5t-106.5 256z" />
<glyph unicode="&#x2026;" horiz-adv-x="1718" d="M96 117q0 57 41 98t96 41q57 0 98.5 -41t41.5 -98q0 -55 -41 -96t-99 -41q-55 0 -96 41t-41 96zM721 117q0 57 41 98t96 41q57 0 98 -41t41 -98q0 -55 -41 -96t-98 -41q-55 0 -96 41t-41 96zM1346 117q0 57 40.5 98t96.5 41q57 0 98 -41t41 -98q0 -55 -41 -96t-98 -41 q-55 0 -96 41t-41 96z" />
<glyph unicode="&#x202f;" horiz-adv-x="378" />
<glyph unicode="&#x2039;" horiz-adv-x="743" d="M96 547l2 20q55 18 131 55t189.5 118t175.5 169h12q10 -31 10 -67q0 -72 -78.5 -168t-162.5 -137v-11q82 -39 161.5 -137t79.5 -170l-10 -67h-12q-57 92 -148.5 158.5t-165 95t-129 64.5t-55.5 77z" />
<glyph unicode="&#x203a;" horiz-adv-x="743" d="M129 219q0 72 80 170t162 137v11q-84 41 -163 137t-79 168l10 67h13q61 -88 174.5 -169t189.5 -117.5t131 -55.5q2 -12 2 -20q0 -41 -55 -77t-129 -64.5t-165 -95t-148 -158.5h-13q-10 28 -10 67z" />
<glyph unicode="&#x205f;" horiz-adv-x="473" />
<glyph unicode="&#x20ac;" horiz-adv-x="1185" d="M88 721q0 76 41 76q29 -2 72 -2q49 201 187 327.5t347 126.5q39 0 93.5 -7t115 -22.5t101 -45t40.5 -68.5q0 -68 -71 -148h-10q-4 8 -14.5 20.5t-41 44.5t-65.5 56.5t-87.5 45t-105.5 20.5q-111 0 -181.5 -100.5t-92.5 -253.5q135 -2 403 -3q121 0 170 9q0 -14 -7 -40 t-34.5 -55.5t-73.5 -29.5q-23 0 -471 6v-31q0 -61 7 -117q102 -2 319 -2q119 0 172 9q0 -14 -13.5 -41t-51 -56.5t-91.5 -29.5q-104 0 -309 4q43 -139 139.5 -212t221.5 -73q154 0 303 104l8 -8q-41 -121 -159 -188.5t-261 -67.5q-223 0 -350 146q-104 117 -141 299 q-33 0 -99 -4q-6 20 -6 51q0 76 41 76q18 0 47 -2q-2 20 -2 59q0 53 4 82q-61 -4 -88 -4q-6 18 -6 49z" />
<glyph unicode="&#x2122;" horiz-adv-x="1771" d="M25 1382q0 51 41 52h491q55 0 135 12q8 -39 8 -68q0 -43 -38 -43h-216q-4 -152 -4 -256q0 -291 21 -452q-78 -14 -92 -15q-90 0 -90 86q0 61 2 180t2 171q0 190 -9 286h-102q-61 0 -147 -12q-2 39 -2 59zM840 1430q47 14 86 14q80 0 98 -29l98 -170q121 -205 138 -252 l60 116l64 124l76 145q37 66 99 66q45 0 81 -8q0 -23 -1 -86.5t-1 -96.5v-174q0 -289 21 -452l-41 -9q-20 -6 -49 -6q-86 0 -86 86v410q0 76 4 111l-8 4q-33 -76 -115 -236t-100 -219h-31q-27 0 -33 8q-47 111 -172 324l-70 119l-8 -5q8 -55 13 -223q4 -197 4 -293 q0 -53 -9.5 -69.5t-48.5 -16.5q-12 0 -27.5 5.5t-25.5 9.5l-10 4q18 35 18 315q0 195 -6 361q-6 96 -18 123z" />
<glyph unicode="&#xe000;" horiz-adv-x="1040" d="M0 1040h1040v-1040h-1040v1040z" />
<glyph unicode="&#xfb01;" horiz-adv-x="1284" d="M27 -444q72 29 106.5 87t57 253.5t22.5 580.5q0 264 -16.5 341t-77.5 100l-53 20v86q72 0 105.5 24.5t33.5 98.5q0 225 110.5 337.5t300.5 112.5q152 0 245 -66.5t93 -170.5l-10 -6q-66 106 -254 106q-102 0 -181 -66.5t-79 -217.5v-56l-6 -96h147q37 0 65 5t36 11l10 4 q2 -12 2 -55q0 -61 -27.5 -82.5t-87.5 -21.5q-8 0 -67.5 1t-69.5 1q-8 -106 -8 -232q0 -94 3 -326.5t3 -389.5q0 -188 -97 -300t-235 -112q-41 0 -71 18v11zM813 1026q63 18 100 18q72 0 123 -35.5t51 -95.5q0 -117 -5 -331.5t-5 -282.5q0 -47 2 -74.5t11.5 -65.5t32 -56.5 t57.5 -18.5l77 29l9 -7q-2 -6 -6.5 -14t-22.5 -29.5t-42 -39t-66 -30.5t-91 -13q-76 0 -130 39.5t-54 125.5q0 59 4 176t4 175q0 209 -12 341t-22.5 160.5t-14.5 28.5z" />
<glyph unicode="&#xfb02;" horiz-adv-x="1282" d="M27 -444q72 29 106.5 87t57 253.5t22.5 580.5q0 264 -16.5 341t-77.5 100l-53 20v86q72 0 105.5 24.5t33.5 98.5q0 225 110.5 337.5t300.5 112.5q119 0 201 -41l2 3q123 -2 193.5 -34t70.5 -118q0 -102 -4 -315t-4 -324q0 -309 8 -549q4 -135 93 -135l77 29l9 -7 q-2 -6 -6.5 -14t-23 -29.5t-42 -39t-65.5 -30.5t-91 -13q-78 0 -131 41.5t-53 136.5q0 76 5 302t5 353q0 289 -10 508q-2 55 -10 113q-68 27 -150 26q-102 0 -181 -66.5t-79 -217.5v-56l-6 -96h147q37 0 65 5t36 11l10 4q2 -12 2 -55q0 -61 -27.5 -82.5t-87.5 -21.5 q-8 0 -67.5 1t-69.5 1q-8 -106 -8 -232q0 -94 3 -326.5t3 -389.5q0 -188 -97 -300t-235 -112q-41 0 -71 18v11z" />
<glyph unicode="&#xfb03;" horiz-adv-x="1976" d="M27 -444q72 29 106.5 87t57 253.5t22.5 580.5q0 264 -16.5 341t-77.5 100l-53 20v86q72 0 105.5 24.5t33.5 98.5q0 168 92 283.5t283 115.5q125 0 192 -104l6 -8l-8 -11q-53 14 -90 15q-106 0 -178 -64.5t-72 -197.5v-56l-6 -96h147q37 0 65 5t36 11l10 4q2 -12 2 -55 q0 -61 -27.5 -82.5t-87.5 -21.5q-8 0 -67.5 1t-69.5 1q-8 -106 -8 -232q0 -94 3 -326.5t3 -389.5q0 -188 -97 -300t-235 -112q-41 0 -71 18v11zM719 -444q72 29 106.5 87t57 253.5t22.5 580.5q0 264 -16.5 341t-77.5 100l-53 20v86q72 0 105.5 24.5t33.5 98.5 q0 225 110.5 337.5t301.5 112.5q152 0 245 -66.5t93 -170.5l-11 -6q-66 106 -254 106q-102 0 -181 -66.5t-79 -217.5v-56l-6 -96h148q37 0 64.5 5t35.5 11l10 4q2 -12 2 -55q0 -61 -27.5 -82.5t-86.5 -21.5q-8 0 -67.5 1t-70.5 1q-8 -106 -8 -232q0 -94 3 -326.5t3 -389.5 q0 -188 -97 -300t-234 -112q-41 0 -72 18v11zM1505 1026q63 18 101 18q72 0 123 -35.5t51 -95.5q0 -117 -5.5 -331.5t-5.5 -282.5q0 -47 2.5 -74.5t11.5 -65.5t31.5 -56.5t57.5 -18.5l78 29l8 -7q-2 -6 -6 -14t-22.5 -29.5t-42 -39t-65.5 -30.5t-91 -13q-76 0 -130.5 39.5 t-54.5 125.5q0 59 4 176t4 175q0 209 -12 341t-22.5 160.5t-14.5 28.5z" />
<glyph unicode="&#xfb04;" horiz-adv-x="1974" d="M27 -444q72 29 106.5 87t57 253.5t22.5 580.5q0 264 -16.5 341t-77.5 100l-53 20v86q72 0 105.5 24.5t33.5 98.5q0 168 92 283.5t283 115.5q125 0 192 -104l6 -8l-8 -11q-53 14 -90 15q-106 0 -178 -64.5t-72 -197.5v-56l-6 -96h147q37 0 65 5t36 11l10 4q2 -12 2 -55 q0 -61 -27.5 -82.5t-87.5 -21.5q-8 0 -67.5 1t-69.5 1q-8 -106 -8 -232q0 -94 3 -326.5t3 -389.5q0 -188 -97 -300t-235 -112q-41 0 -71 18v11zM719 -444q72 29 106.5 87t57 253.5t22.5 580.5q0 264 -16.5 341t-77.5 100l-53 20v86q72 0 105.5 24.5t33.5 98.5 q0 225 110.5 337.5t301.5 112.5q119 0 200 -41l2 3q123 -2 194 -34t71 -118q0 -102 -4.5 -315t-4.5 -324q0 -309 9 -549q4 -135 92 -135l78 29l8 -7q-2 -6 -6 -14t-22.5 -29.5t-42 -39t-65.5 -30.5t-92 -13q-78 0 -131 41.5t-53 136.5q0 76 5 302t5 353q0 289 -10 508 q-2 55 -10 113q-68 27 -150 26q-102 0 -181 -66.5t-79 -217.5v-56l-6 -96h148q37 0 64.5 5t35.5 11l10 4q2 -12 2 -55q0 -61 -27.5 -82.5t-86.5 -21.5q-8 0 -67.5 1t-70.5 1q-8 -106 -8 -232q0 -94 3 -326.5t3 -389.5q0 -188 -97 -300t-234 -112q-41 0 -72 18v11z" />
</font>
</defs>
</svg>
